G04 DipTrace 2.4.0.2*
%INBottomSilk.gbr*%
%MOIN*%
%ADD12C,0.003*%
%ADD33C,0.0154*%
%ADD81C,0.0093*%
%FSLAX44Y44*%
G04*
G70*
G90*
G75*
G01*
%LNBotSilk*%
%LPD*%
X13395Y13356D2*
D12*
D3*
X13355Y13326D2*
X13395D1*
X13320Y13296D2*
X13395D1*
X13287Y13266D2*
X13395D1*
X13256Y13236D2*
X13395D1*
X13226Y13206D2*
X13395D1*
X13196Y13176D2*
X13395D1*
X13166Y13146D2*
X13395D1*
X13136Y13117D2*
X13395D1*
X13105Y13087D2*
X13395D1*
X13073Y13057D2*
X13395D1*
X13043Y13027D2*
X13395D1*
X13015Y12997D2*
X13395D1*
X12986Y12967D2*
X13395D1*
X12956Y12937D2*
X13395D1*
X12927Y12907D2*
X13395D1*
X13874D2*
D3*
X12897Y12877D2*
X13395D1*
X13874D2*
D3*
X12866Y12847D2*
X13395D1*
X13874D2*
X13934D1*
X12837Y12817D2*
X13395D1*
X13874D2*
X13958D1*
X12807Y12787D2*
X13395D1*
X13874D2*
X13986D1*
X12777Y12757D2*
X13395D1*
X13874D2*
X14015D1*
X12747Y12728D2*
X13395D1*
X13874D2*
X14044D1*
X12717Y12698D2*
X13395D1*
X13874D2*
X14073D1*
X12687Y12668D2*
X13395D1*
X13874D2*
X14104D1*
X12658Y12638D2*
X13395D1*
X13874D2*
X14133D1*
X12627Y12608D2*
X13395D1*
X13874D2*
X14163D1*
X12597Y12578D2*
X13395D1*
X13874D2*
X14194D1*
X12568Y12548D2*
X13395D1*
X13874D2*
X14223D1*
X12538Y12518D2*
X13395D1*
X13874D2*
X14253D1*
X12507Y12488D2*
X13395D1*
X13874D2*
X14283D1*
X12478Y12458D2*
X13395D1*
X13874D2*
X14313D1*
X12448Y12428D2*
X13395D1*
X13874D2*
X14343D1*
X12417Y12398D2*
X13395D1*
X13874D2*
X14373D1*
X12388Y12369D2*
X13395D1*
X13874D2*
X14402D1*
X12357Y12339D2*
X13395D1*
X13874D2*
X14433D1*
X12325Y12309D2*
X13395D1*
X13874D2*
X14466D1*
X12295Y12279D2*
X13395D1*
X13874D2*
X14496D1*
X12267Y12249D2*
X13395D1*
X13874D2*
X14524D1*
X12238Y12219D2*
X13395D1*
X13874D2*
X14553D1*
X12208Y12189D2*
X13395D1*
X13874D2*
X14583D1*
X12179Y12159D2*
X13395D1*
X13874D2*
X14612D1*
X12149Y12129D2*
X13395D1*
X13874D2*
X14642D1*
X12118Y12099D2*
X13395D1*
X13874D2*
X14672D1*
X12089Y12069D2*
X13395D1*
X13874D2*
X14702D1*
X12059Y12039D2*
X13395D1*
X13874D2*
X14732D1*
X12028Y12009D2*
X13395D1*
X13874D2*
X14762D1*
X11999Y11980D2*
X13395D1*
X13874D2*
X14791D1*
X11969Y11950D2*
X13395D1*
X13874D2*
X14821D1*
X11939Y11920D2*
X13395D1*
X13874D2*
X14852D1*
X11909Y11890D2*
X13395D1*
X13874D2*
X14881D1*
X11879Y11860D2*
X13395D1*
X13874D2*
X14911D1*
X11849Y11830D2*
X13395D1*
X13874D2*
X14942D1*
X11820Y11800D2*
X13395D1*
X13874D2*
X14971D1*
X11790Y11770D2*
X13395D1*
X13874D2*
X15001D1*
X11759Y11740D2*
X13395D1*
X13874D2*
X15031D1*
X11730Y11710D2*
X13395D1*
X13874D2*
X15061D1*
X11700Y11680D2*
X13395D1*
X13874D2*
X15091D1*
X11669Y11650D2*
X13395D1*
X13874D2*
X15121D1*
X11640Y11620D2*
X13395D1*
X13874D2*
X15150D1*
X11609Y11591D2*
X13395D1*
X13874D2*
X15181D1*
X11577Y11561D2*
X13395D1*
X13874D2*
X15214D1*
X11547Y11531D2*
X13395D1*
X13874D2*
X15244D1*
X11519Y11501D2*
X13395D1*
X13874D2*
X15272D1*
X11490Y11471D2*
X13395D1*
X13874D2*
X15301D1*
X11460Y11441D2*
X13395D1*
X13874D2*
X15331D1*
X11431Y11411D2*
X13395D1*
X13874D2*
X15360D1*
X11401Y11381D2*
X13393D1*
X13874D2*
X15390D1*
X11370Y11351D2*
X13388D1*
X13874D2*
X15420D1*
X11341Y11321D2*
X13370D1*
X13874D2*
X15450D1*
X11311Y11291D2*
X13350D1*
X13874D2*
X15480D1*
X11280Y11261D2*
X13327D1*
X13874D2*
X15510D1*
X11251Y11231D2*
X13301D1*
X13874D2*
X15539D1*
X11221Y11202D2*
X13274D1*
X13874D2*
X15569D1*
X11191Y11172D2*
X13245D1*
X13874D2*
X15600D1*
X11161Y11142D2*
X13215D1*
X13874D2*
X15629D1*
X11131Y11112D2*
X13186D1*
X13874D2*
X15659D1*
X11101Y11082D2*
X13156D1*
X13874D2*
X15690D1*
X11072Y11052D2*
X13125D1*
X13874D2*
X15719D1*
X11042Y11022D2*
X13092D1*
X13874D2*
X15749D1*
X11011Y10992D2*
X13059D1*
X13874D2*
X15779D1*
X10981Y10962D2*
X13029D1*
X13874D2*
X15809D1*
X10948Y10932D2*
X13002D1*
X13874D2*
X15839D1*
X10912Y10902D2*
X12976D1*
X13875D2*
X15869D1*
X13879Y10872D2*
X15899D1*
X13896Y10843D2*
X15929D1*
X13919Y10813D2*
X15962D1*
X13945Y10783D2*
X15992D1*
X13970Y10753D2*
X16020D1*
X13997Y10723D2*
X16049D1*
X14025Y10693D2*
X16079D1*
X14054Y10663D2*
X16108D1*
X14084Y10633D2*
X16138D1*
X14113Y10603D2*
X16168D1*
X14143Y10573D2*
X16198D1*
X14173Y10543D2*
X16228D1*
X14203Y10513D2*
X16257D1*
X14233Y10483D2*
X16282D1*
X14263Y10454D2*
X16305D1*
X10463Y10424D2*
X12498D1*
X14293D2*
X16328D1*
X10484Y10394D2*
X12528D1*
X10508Y10364D2*
X12557D1*
X10535Y10334D2*
X12587D1*
X10564Y10304D2*
X12617D1*
X10593Y10274D2*
X12647D1*
X10623Y10244D2*
X12677D1*
X10653Y10214D2*
X12707D1*
X10682Y10184D2*
X12737D1*
X10713Y10154D2*
X12766D1*
X10741Y10124D2*
X12793D1*
X10769Y10094D2*
X12819D1*
X10799Y10065D2*
X12848D1*
X10831Y10035D2*
X12875D1*
X10861Y10005D2*
X12895D1*
X10891Y9975D2*
X12907D1*
X10922Y9945D2*
X12913D1*
X13814D2*
X15879D1*
X10952Y9915D2*
X12915D1*
X13790D2*
X15844D1*
X10981Y9885D2*
X12916D1*
X13761D2*
X15812D1*
X11012Y9855D2*
X12916D1*
X13729D2*
X15780D1*
X11042Y9825D2*
X12916D1*
X13697D2*
X15749D1*
X11071Y9795D2*
X12917D1*
X13666D2*
X15720D1*
X11102Y9765D2*
X12917D1*
X13635D2*
X15689D1*
X11131Y9735D2*
X12917D1*
X13605D2*
X15659D1*
X11161Y9706D2*
X12917D1*
X13575D2*
X15630D1*
X11191Y9676D2*
X12917D1*
X13545D2*
X15599D1*
X11221Y9646D2*
X12917D1*
X13515D2*
X15569D1*
X11251Y9616D2*
X12917D1*
X13485D2*
X15540D1*
X11281Y9586D2*
X12917D1*
X13456D2*
X15509D1*
X11311Y9556D2*
X12917D1*
X13431D2*
X15480D1*
X11340Y9526D2*
X12917D1*
X13414D2*
X15450D1*
X11371Y9496D2*
X12917D1*
X13404D2*
X15420D1*
X11401Y9466D2*
X12917D1*
X13399D2*
X15390D1*
X11430Y9436D2*
X12917D1*
X13397D2*
X15360D1*
X11461Y9406D2*
X12917D1*
X13396D2*
X15330D1*
X11489Y9376D2*
X12917D1*
X13395D2*
X15301D1*
X11517Y9346D2*
X12917D1*
X13395D2*
X15273D1*
X11547Y9317D2*
X12917D1*
X13395D2*
X15244D1*
X11579Y9287D2*
X12917D1*
X13395D2*
X15212D1*
X11609Y9257D2*
X12917D1*
X13395D2*
X15181D1*
X11639Y9227D2*
X12917D1*
X13395D2*
X15151D1*
X11670Y9197D2*
X12917D1*
X13395D2*
X15121D1*
X11700Y9167D2*
X12917D1*
X13395D2*
X15091D1*
X11729Y9137D2*
X12917D1*
X13395D2*
X15061D1*
X11760Y9107D2*
X12917D1*
X13395D2*
X15031D1*
X11790Y9077D2*
X12917D1*
X13395D2*
X15001D1*
X11819Y9047D2*
X12917D1*
X13395D2*
X14972D1*
X11850Y9017D2*
X12917D1*
X13395D2*
X14941D1*
X11879Y8987D2*
X12917D1*
X13395D2*
X14911D1*
X11909Y8957D2*
X12917D1*
X13395D2*
X14882D1*
X11939Y8928D2*
X12917D1*
X13395D2*
X14851D1*
X11969Y8898D2*
X12917D1*
X13395D2*
X14821D1*
X11999Y8868D2*
X12917D1*
X13395D2*
X14792D1*
X12029Y8838D2*
X12917D1*
X13395D2*
X14761D1*
X12059Y8808D2*
X12917D1*
X13395D2*
X14732D1*
X12088Y8778D2*
X12917D1*
X13395D2*
X14702D1*
X12119Y8748D2*
X12917D1*
X13395D2*
X14672D1*
X12149Y8718D2*
X12917D1*
X13395D2*
X14642D1*
X12178Y8688D2*
X12917D1*
X13395D2*
X14612D1*
X12209Y8658D2*
X12917D1*
X13395D2*
X14582D1*
X12237Y8628D2*
X12917D1*
X13395D2*
X14553D1*
X12265Y8598D2*
X12917D1*
X13395D2*
X14525D1*
X12295Y8569D2*
X12917D1*
X13395D2*
X14496D1*
X12327Y8539D2*
X12917D1*
X13395D2*
X14464D1*
X12357Y8509D2*
X12917D1*
X13395D2*
X14433D1*
X12387Y8479D2*
X12917D1*
X13395D2*
X14403D1*
X12418Y8449D2*
X12917D1*
X13395D2*
X14373D1*
X12448Y8419D2*
X12917D1*
X13395D2*
X14343D1*
X12477Y8389D2*
X12917D1*
X13395D2*
X14313D1*
X12508Y8359D2*
X12917D1*
X13395D2*
X14283D1*
X12538Y8329D2*
X12917D1*
X13395D2*
X14253D1*
X12567Y8299D2*
X12917D1*
X13395D2*
X14223D1*
X12598Y8269D2*
X12917D1*
X13395D2*
X14193D1*
X12627Y8239D2*
X12917D1*
X13395D2*
X14163D1*
X12657Y8209D2*
X12917D1*
X13395D2*
X14134D1*
X12687Y8180D2*
X12917D1*
X13395D2*
X14103D1*
X12717Y8150D2*
X12917D1*
X13395D2*
X14073D1*
X12747Y8120D2*
X12917D1*
X13395D2*
X14044D1*
X12777Y8090D2*
X12917D1*
X13395D2*
X14013D1*
X12807Y8060D2*
X12917D1*
X13395D2*
X13984D1*
X12836Y8030D2*
X12917D1*
X13395D2*
X13954D1*
X12866Y8000D2*
X12917D1*
X13395D2*
X13924D1*
X12893Y7970D2*
X12917D1*
X13395D2*
X13894D1*
X12917Y7940D2*
D3*
X13395D2*
X13864D1*
X13395Y7910D2*
X13834D1*
X13395Y7880D2*
X13805D1*
X13395Y7850D2*
X13777D1*
X13395Y7820D2*
X13748D1*
X13395Y7791D2*
X13716D1*
X13395Y7761D2*
X13685D1*
X13395Y7731D2*
X13655D1*
X13395Y7701D2*
X13625D1*
X13395Y7671D2*
X13595D1*
X13395Y7641D2*
X13565D1*
X13395Y7611D2*
X13535D1*
X13395Y7581D2*
X13505D1*
X13395Y7551D2*
X13473D1*
X13395Y7521D2*
X13436D1*
X13395Y7491D2*
D3*
Y13356D2*
X13355Y13326D1*
X13320Y13296D1*
X13287Y13266D1*
X13256Y13236D1*
X13226Y13206D1*
X13196Y13176D1*
X13166Y13146D1*
X13136Y13117D1*
X13105Y13087D1*
X13073Y13057D1*
X13043Y13027D1*
X13015Y12997D1*
X12986Y12967D1*
X12956Y12937D1*
X12927Y12907D1*
X12897Y12877D1*
X12866Y12847D1*
X12837Y12817D1*
X12807Y12787D1*
X12777Y12757D1*
X12747Y12728D1*
X12717Y12698D1*
X12687Y12668D1*
X12658Y12638D1*
X12627Y12608D1*
X12597Y12578D1*
X12568Y12548D1*
X12538Y12518D1*
X12507Y12488D1*
X12478Y12458D1*
X12448Y12428D1*
X12417Y12398D1*
X12388Y12369D1*
X12357Y12339D1*
X12325Y12309D1*
X12295Y12279D1*
X12267Y12249D1*
X12238Y12219D1*
X12208Y12189D1*
X12179Y12159D1*
X12149Y12129D1*
X12118Y12099D1*
X12089Y12069D1*
X12059Y12039D1*
X12028Y12009D1*
X11999Y11980D1*
X11969Y11950D1*
X11939Y11920D1*
X11909Y11890D1*
X11879Y11860D1*
X11849Y11830D1*
X11820Y11800D1*
X11790Y11770D1*
X11759Y11740D1*
X11730Y11710D1*
X11700Y11680D1*
X11669Y11650D1*
X11640Y11620D1*
X11609Y11591D1*
X11577Y11561D1*
X11547Y11531D1*
X11519Y11501D1*
X11490Y11471D1*
X11460Y11441D1*
X11431Y11411D1*
X11401Y11381D1*
X11370Y11351D1*
X11341Y11321D1*
X11311Y11291D1*
X11280Y11261D1*
X11251Y11231D1*
X11221Y11202D1*
X11191Y11172D1*
X11161Y11142D1*
X11131Y11112D1*
X11101Y11082D1*
X11072Y11052D1*
X11042Y11022D1*
X11011Y10992D1*
X10981Y10962D1*
X10948Y10932D1*
X10912Y10902D1*
X13395Y13326D2*
Y13296D1*
Y13266D1*
Y13236D1*
Y13206D1*
Y13176D1*
Y13146D1*
Y13117D1*
Y13087D1*
Y13057D1*
Y13027D1*
Y12997D1*
Y12967D1*
Y12937D1*
Y12907D1*
Y12877D1*
Y12847D1*
Y12817D1*
Y12787D1*
Y12757D1*
Y12728D1*
Y12698D1*
Y12668D1*
Y12638D1*
Y12608D1*
Y12578D1*
Y12548D1*
Y12518D1*
Y12488D1*
Y12458D1*
Y12428D1*
Y12398D1*
Y12369D1*
Y12339D1*
Y12309D1*
Y12279D1*
Y12249D1*
Y12219D1*
Y12189D1*
Y12159D1*
Y12129D1*
Y12099D1*
Y12069D1*
Y12039D1*
Y12009D1*
Y11980D1*
Y11950D1*
Y11920D1*
Y11890D1*
Y11860D1*
Y11830D1*
Y11800D1*
Y11770D1*
Y11740D1*
Y11710D1*
Y11680D1*
Y11650D1*
Y11620D1*
Y11591D1*
Y11561D1*
Y11531D1*
Y11501D1*
Y11471D1*
Y11441D1*
Y11411D1*
X13393Y11381D1*
X13388Y11351D1*
X13370Y11321D1*
X13350Y11291D1*
X13327Y11261D1*
X13301Y11231D1*
X13274Y11202D1*
X13245Y11172D1*
X13215Y11142D1*
X13186Y11112D1*
X13156Y11082D1*
X13125Y11052D1*
X13092Y11022D1*
X13059Y10992D1*
X13029Y10962D1*
X13002Y10932D1*
X12976Y10902D1*
X13874Y12907D2*
Y12877D1*
Y12847D1*
Y12817D1*
Y12787D1*
Y12757D1*
Y12728D1*
Y12698D1*
Y12668D1*
Y12638D1*
Y12608D1*
Y12578D1*
Y12548D1*
Y12518D1*
Y12488D1*
Y12458D1*
Y12428D1*
Y12398D1*
Y12369D1*
Y12339D1*
Y12309D1*
Y12279D1*
Y12249D1*
Y12219D1*
Y12189D1*
Y12159D1*
Y12129D1*
Y12099D1*
Y12069D1*
Y12039D1*
Y12009D1*
Y11980D1*
Y11950D1*
Y11920D1*
Y11890D1*
Y11860D1*
Y11830D1*
Y11800D1*
Y11770D1*
Y11740D1*
Y11710D1*
Y11680D1*
Y11650D1*
Y11620D1*
Y11591D1*
Y11561D1*
Y11531D1*
Y11501D1*
Y11471D1*
Y11441D1*
Y11411D1*
Y11381D1*
Y11351D1*
Y11321D1*
Y11291D1*
Y11261D1*
Y11231D1*
Y11202D1*
Y11172D1*
Y11142D1*
Y11112D1*
Y11082D1*
Y11052D1*
Y11022D1*
Y10992D1*
Y10962D1*
Y10932D1*
X13875Y10902D1*
X13879Y10872D1*
X13896Y10843D1*
X13919Y10813D1*
X13945Y10783D1*
X13970Y10753D1*
X13997Y10723D1*
X14025Y10693D1*
X14054Y10663D1*
X14084Y10633D1*
X14113Y10603D1*
X14143Y10573D1*
X14173Y10543D1*
X14203Y10513D1*
X14233Y10483D1*
X14263Y10454D1*
X14293Y10424D1*
X13934Y12847D2*
X13958Y12817D1*
X13986Y12787D1*
X14015Y12757D1*
X14044Y12728D1*
X14073Y12698D1*
X14104Y12668D1*
X14133Y12638D1*
X14163Y12608D1*
X14194Y12578D1*
X14223Y12548D1*
X14253Y12518D1*
X14283Y12488D1*
X14313Y12458D1*
X14343Y12428D1*
X14373Y12398D1*
X14402Y12369D1*
X14433Y12339D1*
X14466Y12309D1*
X14496Y12279D1*
X14524Y12249D1*
X14553Y12219D1*
X14583Y12189D1*
X14612Y12159D1*
X14642Y12129D1*
X14672Y12099D1*
X14702Y12069D1*
X14732Y12039D1*
X14762Y12009D1*
X14791Y11980D1*
X14821Y11950D1*
X14852Y11920D1*
X14881Y11890D1*
X14911Y11860D1*
X14942Y11830D1*
X14971Y11800D1*
X15001Y11770D1*
X15031Y11740D1*
X15061Y11710D1*
X15091Y11680D1*
X15121Y11650D1*
X15150Y11620D1*
X15181Y11591D1*
X15214Y11561D1*
X15244Y11531D1*
X15272Y11501D1*
X15301Y11471D1*
X15331Y11441D1*
X15360Y11411D1*
X15390Y11381D1*
X15420Y11351D1*
X15450Y11321D1*
X15480Y11291D1*
X15510Y11261D1*
X15539Y11231D1*
X15569Y11202D1*
X15600Y11172D1*
X15629Y11142D1*
X15659Y11112D1*
X15690Y11082D1*
X15719Y11052D1*
X15749Y11022D1*
X15779Y10992D1*
X15809Y10962D1*
X15839Y10932D1*
X15869Y10902D1*
X15899Y10872D1*
X15929Y10843D1*
X15962Y10813D1*
X15992Y10783D1*
X16020Y10753D1*
X16049Y10723D1*
X16079Y10693D1*
X16108Y10663D1*
X16138Y10633D1*
X16168Y10603D1*
X16198Y10573D1*
X16228Y10543D1*
X16257Y10513D1*
X16282Y10483D1*
X16305Y10454D1*
X16328Y10424D1*
X10463D2*
X10484Y10394D1*
X10508Y10364D1*
X10535Y10334D1*
X10564Y10304D1*
X10593Y10274D1*
X10623Y10244D1*
X10653Y10214D1*
X10682Y10184D1*
X10713Y10154D1*
X10741Y10124D1*
X10769Y10094D1*
X10799Y10065D1*
X10831Y10035D1*
X10861Y10005D1*
X10891Y9975D1*
X10922Y9945D1*
X10952Y9915D1*
X10981Y9885D1*
X11012Y9855D1*
X11042Y9825D1*
X11071Y9795D1*
X11102Y9765D1*
X11131Y9735D1*
X11161Y9706D1*
X11191Y9676D1*
X11221Y9646D1*
X11251Y9616D1*
X11281Y9586D1*
X11311Y9556D1*
X11340Y9526D1*
X11371Y9496D1*
X11401Y9466D1*
X11430Y9436D1*
X11461Y9406D1*
X11489Y9376D1*
X11517Y9346D1*
X11547Y9317D1*
X11579Y9287D1*
X11609Y9257D1*
X11639Y9227D1*
X11670Y9197D1*
X11700Y9167D1*
X11729Y9137D1*
X11760Y9107D1*
X11790Y9077D1*
X11819Y9047D1*
X11850Y9017D1*
X11879Y8987D1*
X11909Y8957D1*
X11939Y8928D1*
X11969Y8898D1*
X11999Y8868D1*
X12029Y8838D1*
X12059Y8808D1*
X12088Y8778D1*
X12119Y8748D1*
X12149Y8718D1*
X12178Y8688D1*
X12209Y8658D1*
X12237Y8628D1*
X12265Y8598D1*
X12295Y8569D1*
X12327Y8539D1*
X12357Y8509D1*
X12387Y8479D1*
X12418Y8449D1*
X12448Y8419D1*
X12477Y8389D1*
X12508Y8359D1*
X12538Y8329D1*
X12567Y8299D1*
X12598Y8269D1*
X12627Y8239D1*
X12657Y8209D1*
X12687Y8180D1*
X12717Y8150D1*
X12747Y8120D1*
X12777Y8090D1*
X12807Y8060D1*
X12836Y8030D1*
X12866Y8000D1*
X12893Y7970D1*
X12917Y7940D1*
X12498Y10424D2*
X12528Y10394D1*
X12557Y10364D1*
X12587Y10334D1*
X12617Y10304D1*
X12647Y10274D1*
X12677Y10244D1*
X12707Y10214D1*
X12737Y10184D1*
X12766Y10154D1*
X12793Y10124D1*
X12819Y10094D1*
X12848Y10065D1*
X12875Y10035D1*
X12895Y10005D1*
X12907Y9975D1*
X12913Y9945D1*
X12915Y9915D1*
X12916Y9885D1*
Y9855D1*
Y9825D1*
X12917Y9795D1*
Y9765D1*
Y9735D1*
Y9706D1*
Y9676D1*
Y9646D1*
Y9616D1*
Y9586D1*
Y9556D1*
Y9526D1*
Y9496D1*
Y9466D1*
Y9436D1*
Y9406D1*
Y9376D1*
Y9346D1*
Y9317D1*
Y9287D1*
Y9257D1*
Y9227D1*
Y9197D1*
Y9167D1*
Y9137D1*
Y9107D1*
Y9077D1*
Y9047D1*
Y9017D1*
Y8987D1*
Y8957D1*
Y8928D1*
Y8898D1*
Y8868D1*
Y8838D1*
Y8808D1*
Y8778D1*
Y8748D1*
Y8718D1*
Y8688D1*
Y8658D1*
Y8628D1*
Y8598D1*
Y8569D1*
Y8539D1*
Y8509D1*
Y8479D1*
Y8449D1*
Y8419D1*
Y8389D1*
Y8359D1*
Y8329D1*
Y8299D1*
Y8269D1*
Y8239D1*
Y8209D1*
Y8180D1*
Y8150D1*
Y8120D1*
Y8090D1*
Y8060D1*
Y8030D1*
Y8000D1*
Y7970D1*
Y7940D1*
X13814Y9945D2*
X13790Y9915D1*
X13761Y9885D1*
X13729Y9855D1*
X13697Y9825D1*
X13666Y9795D1*
X13635Y9765D1*
X13605Y9735D1*
X13575Y9706D1*
X13545Y9676D1*
X13515Y9646D1*
X13485Y9616D1*
X13456Y9586D1*
X13431Y9556D1*
X13414Y9526D1*
X13404Y9496D1*
X13399Y9466D1*
X13397Y9436D1*
X13396Y9406D1*
X13395Y9376D1*
Y9346D1*
Y9317D1*
Y9287D1*
Y9257D1*
Y9227D1*
Y9197D1*
Y9167D1*
Y9137D1*
Y9107D1*
Y9077D1*
Y9047D1*
Y9017D1*
Y8987D1*
Y8957D1*
Y8928D1*
Y8898D1*
Y8868D1*
Y8838D1*
Y8808D1*
Y8778D1*
Y8748D1*
Y8718D1*
Y8688D1*
Y8658D1*
Y8628D1*
Y8598D1*
Y8569D1*
Y8539D1*
Y8509D1*
Y8479D1*
Y8449D1*
Y8419D1*
Y8389D1*
Y8359D1*
Y8329D1*
Y8299D1*
Y8269D1*
Y8239D1*
Y8209D1*
Y8180D1*
Y8150D1*
Y8120D1*
Y8090D1*
Y8060D1*
Y8030D1*
Y8000D1*
Y7970D1*
Y7940D1*
Y7910D1*
Y7880D1*
Y7850D1*
Y7820D1*
Y7791D1*
Y7761D1*
Y7731D1*
Y7701D1*
Y7671D1*
Y7641D1*
Y7611D1*
Y7581D1*
Y7551D1*
Y7521D1*
Y7491D1*
X15879Y9945D2*
X15844Y9915D1*
X15812Y9885D1*
X15780Y9855D1*
X15749Y9825D1*
X15720Y9795D1*
X15689Y9765D1*
X15659Y9735D1*
X15630Y9706D1*
X15599Y9676D1*
X15569Y9646D1*
X15540Y9616D1*
X15509Y9586D1*
X15480Y9556D1*
X15450Y9526D1*
X15420Y9496D1*
X15390Y9466D1*
X15360Y9436D1*
X15330Y9406D1*
X15301Y9376D1*
X15273Y9346D1*
X15244Y9317D1*
X15212Y9287D1*
X15181Y9257D1*
X15151Y9227D1*
X15121Y9197D1*
X15091Y9167D1*
X15061Y9137D1*
X15031Y9107D1*
X15001Y9077D1*
X14972Y9047D1*
X14941Y9017D1*
X14911Y8987D1*
X14882Y8957D1*
X14851Y8928D1*
X14821Y8898D1*
X14792Y8868D1*
X14761Y8838D1*
X14732Y8808D1*
X14702Y8778D1*
X14672Y8748D1*
X14642Y8718D1*
X14612Y8688D1*
X14582Y8658D1*
X14553Y8628D1*
X14525Y8598D1*
X14496Y8569D1*
X14464Y8539D1*
X14433Y8509D1*
X14403Y8479D1*
X14373Y8449D1*
X14343Y8419D1*
X14313Y8389D1*
X14283Y8359D1*
X14253Y8329D1*
X14223Y8299D1*
X14193Y8269D1*
X14163Y8239D1*
X14134Y8209D1*
X14103Y8180D1*
X14073Y8150D1*
X14044Y8120D1*
X14013Y8090D1*
X13984Y8060D1*
X13954Y8030D1*
X13924Y8000D1*
X13894Y7970D1*
X13864Y7940D1*
X13834Y7910D1*
X13805Y7880D1*
X13777Y7850D1*
X13748Y7820D1*
X13716Y7791D1*
X13685Y7761D1*
X13655Y7731D1*
X13625Y7701D1*
X13595Y7671D1*
X13565Y7641D1*
X13535Y7611D1*
X13505Y7581D1*
X13473Y7551D1*
X13436Y7521D1*
X13395Y7491D1*
X19820Y6774D2*
D33*
Y6008D1*
X19868Y5865D1*
X19915Y5817D1*
X20011Y5769D1*
X20155D1*
X20250Y5817D1*
X19820Y6630D2*
X19915Y6725D1*
X20011Y6774D1*
X20155D1*
X20250Y6725D1*
X20346Y6630D1*
X20394Y6486D1*
Y6390D1*
X20346Y6248D1*
X20250Y6152D1*
X20155Y6104D1*
X20011D1*
X19915Y6152D1*
X19820Y6248D1*
X19511Y6821D2*
Y5817D1*
Y6678D2*
X19415Y6773D1*
X19320Y6821D1*
X19176D1*
X19080Y6773D1*
X18985Y6678D1*
X18936Y6534D1*
Y6438D1*
X18985Y6295D1*
X19080Y6199D1*
X19176Y6152D1*
X19320D1*
X19415Y6199D1*
X19511Y6295D1*
X18054Y6821D2*
Y6152D1*
Y6678D2*
X18149Y6774D1*
X18245Y6821D1*
X18388D1*
X18484Y6774D1*
X18579Y6678D1*
X18628Y6534D1*
Y6439D1*
X18579Y6295D1*
X18484Y6200D1*
X18388Y6152D1*
X18245D1*
X18149Y6200D1*
X18054Y6295D1*
X17745Y6653D2*
X17192D1*
X16884Y6821D2*
Y6152D1*
Y6534D2*
X16835Y6678D1*
X16740Y6774D1*
X16644Y6821D1*
X16500D1*
X15953D2*
X16048Y6774D1*
X16144Y6678D1*
X16191Y6534D1*
Y6439D1*
X16144Y6295D1*
X16048Y6200D1*
X15953Y6152D1*
X15809D1*
X15713Y6200D1*
X15618Y6295D1*
X15569Y6439D1*
Y6534D1*
X15618Y6678D1*
X15713Y6774D1*
X15809Y6821D1*
X15953D1*
X15260Y7156D2*
Y6152D1*
Y6678D2*
X15164Y6774D1*
X15069Y6821D1*
X14925D1*
X14830Y6774D1*
X14734Y6678D1*
X14687Y6534D1*
Y6439D1*
X14734Y6295D1*
X14830Y6200D1*
X14925Y6152D1*
X15069D1*
X15164Y6200D1*
X15260Y6295D1*
X14139Y6821D2*
X14234Y6774D1*
X14330Y6678D1*
X14378Y6534D1*
Y6439D1*
X14330Y6295D1*
X14234Y6200D1*
X14139Y6152D1*
X13995D1*
X13899Y6200D1*
X13804Y6295D1*
X13755Y6439D1*
Y6534D1*
X13804Y6678D1*
X13899Y6774D1*
X13995Y6821D1*
X14139D1*
X13303Y7156D2*
Y6343D1*
X13255Y6200D1*
X13159Y6152D1*
X13064D1*
X13447Y6821D2*
X13112D1*
X12755Y7156D2*
X12708Y7109D1*
X12659Y7156D1*
X12708Y7205D1*
X12755Y7156D1*
X12708Y6821D2*
Y6152D1*
X11776Y6678D2*
X11872Y6774D1*
X11968Y6821D1*
X12111D1*
X12207Y6774D1*
X12302Y6678D1*
X12350Y6534D1*
Y6439D1*
X12302Y6295D1*
X12207Y6200D1*
X12111Y6152D1*
X11968D1*
X11872Y6200D1*
X11776Y6295D1*
X10941Y6678D2*
X10988Y6774D1*
X11132Y6821D1*
X11276D1*
X11419Y6774D1*
X11467Y6678D1*
X11419Y6583D1*
X11323Y6534D1*
X11084Y6486D1*
X10988Y6439D1*
X10941Y6343D1*
Y6295D1*
X10988Y6200D1*
X11132Y6152D1*
X11276D1*
X11419Y6200D1*
X11467Y6295D1*
X10584Y6248D2*
X10632Y6199D1*
X10584Y6152D1*
X10536Y6199D1*
X10584Y6248D1*
X9652Y6678D2*
X9748Y6774D1*
X9844Y6821D1*
X9987D1*
X10083Y6774D1*
X10178Y6678D1*
X10227Y6534D1*
Y6439D1*
X10178Y6295D1*
X10083Y6200D1*
X9987Y6152D1*
X9844D1*
X9748Y6200D1*
X9652Y6295D1*
X9105Y6821D2*
X9200Y6774D1*
X9296Y6678D1*
X9343Y6534D1*
Y6439D1*
X9296Y6295D1*
X9200Y6200D1*
X9105Y6152D1*
X8961D1*
X8865Y6200D1*
X8770Y6295D1*
X8721Y6439D1*
Y6534D1*
X8770Y6678D1*
X8865Y6774D1*
X8961Y6821D1*
X9105D1*
X8412D2*
Y6152D1*
Y6630D2*
X8269Y6774D1*
X8172Y6821D1*
X8030D1*
X7934Y6774D1*
X7886Y6630D1*
Y6152D1*
Y6630D2*
X7742Y6774D1*
X7646Y6821D1*
X7504D1*
X7407Y6774D1*
X7359Y6630D1*
Y6152D1*
X21456Y7557D2*
D81*
X21197D1*
X21112Y7586D1*
X21083Y7615D1*
X21054Y7672D1*
Y7758D1*
X21083Y7815D1*
X21112Y7844D1*
X21197Y7873D1*
X21456D1*
Y7270D1*
X20869Y7873D2*
X20725Y7270D1*
X20582Y7873D1*
X20438Y7270D1*
X20295Y7873D1*
X20109Y7586D2*
X19851D1*
X19765Y7615D1*
X19736Y7643D1*
X19707Y7700D1*
Y7758D1*
X19736Y7815D1*
X19765Y7844D1*
X19851Y7873D1*
X20109D1*
Y7270D1*
X19908Y7586D2*
X19707Y7270D1*
X21007Y8786D2*
X21035Y8843D1*
X21093Y8900D1*
X21150Y8929D1*
X21265D1*
X21322Y8900D1*
X21379Y8843D1*
X21409Y8786D1*
X21437Y8699D1*
Y8555D1*
X21409Y8470D1*
X21379Y8412D1*
X21322Y8355D1*
X21265Y8326D1*
X21150D1*
X21093Y8355D1*
X21035Y8412D1*
X21007Y8470D1*
Y8555D1*
X21150D1*
X20420Y8929D2*
Y8326D1*
X20821Y8929D1*
Y8326D1*
X20234Y8929D2*
Y8326D1*
X20033D1*
X19947Y8355D1*
X19889Y8412D1*
X19861Y8470D1*
X19832Y8555D1*
Y8699D1*
X19861Y8786D1*
X19889Y8843D1*
X19947Y8900D1*
X20033Y8929D1*
X20234D1*
X21013Y9257D2*
X21244Y9860D1*
X21473Y9257D1*
X21387Y9458D2*
X21100D1*
X21415Y10897D2*
Y10294D1*
X21157D1*
X21070Y10324D1*
X21042Y10352D1*
X21013Y10409D1*
Y10495D1*
X21042Y10553D1*
X21070Y10582D1*
X21157Y10610D1*
X21070Y10639D1*
X21042Y10668D1*
X21013Y10725D1*
Y10783D1*
X21042Y10840D1*
X21070Y10869D1*
X21157Y10897D1*
X21415D1*
Y10610D2*
X21157D1*
X5366Y7069D2*
D33*
X4361D1*
X5366Y7739D2*
X4361D1*
X4887Y7069D2*
Y7739D1*
X5366Y8335D2*
X5318Y8239D1*
X5222Y8144D1*
X5127Y8095D1*
X4983Y8048D1*
X4744D1*
X4601Y8095D1*
X4505Y8144D1*
X4410Y8239D1*
X4361Y8335D1*
Y8526D1*
X4410Y8621D1*
X4505Y8718D1*
X4601Y8765D1*
X4744Y8813D1*
X4983D1*
X5127Y8765D1*
X5222Y8718D1*
X5318Y8621D1*
X5366Y8526D1*
Y8335D1*
X5222Y9791D2*
X5318Y9696D1*
X5366Y9552D1*
Y9361D1*
X5318Y9218D1*
X5222Y9121D1*
X5127D1*
X5031Y9170D1*
X4983Y9218D1*
X4936Y9313D1*
X4840Y9600D1*
X4792Y9696D1*
X4744Y9744D1*
X4648Y9791D1*
X4505D1*
X4410Y9696D1*
X4361Y9552D1*
Y9361D1*
X4410Y9218D1*
X4505Y9121D1*
X5366Y10435D2*
X4361D1*
X5366Y10100D2*
Y10770D1*
M02*
