G04 DipTrace 2.4.0.2*
%INBottom.gbr*%
%MOIN*%
%ADD14C,0.013*%
%ADD27R,0.0984X0.0748*%
%ADD28O,0.0984X0.0748*%
%ADD29R,0.063X0.063*%
%ADD30C,0.063*%
%ADD31C,0.126*%
%ADD40C,0.04*%
%FSLAX44Y44*%
G04*
G70*
G90*
G75*
G01*
%LNBottom*%
%LPD*%
X20171Y5187D2*
D14*
X20546D1*
Y6038D1*
Y8062D1*
X21039Y8555D1*
X22169D1*
X20546Y6038D2*
X19147D1*
X19046Y5937D1*
X13976Y12795D2*
X13860D1*
X13435Y12371D1*
X14075Y11731D1*
X15703Y10103D1*
X17744Y8062D1*
X20546D1*
X14075Y11614D2*
Y11731D1*
X12992Y8858D2*
X14458D1*
X15703Y10103D1*
X10335Y8465D2*
X8169D1*
X7185Y7480D1*
X11122Y5118D2*
Y7677D1*
X10335Y8465D1*
Y9547D2*
Y8465D1*
X6122Y11445D2*
X8339D1*
X8858Y10925D1*
X11614Y10827D2*
Y9547D1*
X11909D1*
Y8957D1*
X12303Y8563D1*
X12697D1*
X12992Y8858D1*
X10335Y9547D2*
X11614D1*
X12609Y9375D2*
X13546D1*
X14046Y9875D1*
D40*
X20171Y5187D3*
X19046Y5937D3*
X13976Y12795D3*
X14075Y11614D3*
X12992Y8858D3*
X10335Y8465D3*
X11122Y5118D3*
X10335Y8465D3*
Y9547D3*
Y8465D3*
X8858Y10925D3*
X11614Y10827D3*
X12992Y8858D3*
X10335Y9547D3*
X12609Y9375D3*
X14046Y9875D3*
X10484Y13250D3*
X21234Y9187D3*
X18671D3*
X17921D3*
X17796Y9812D3*
X19671Y9187D3*
X20421D3*
X5841Y13326D2*
D14*
X21718D1*
X5904Y13198D2*
X21655D1*
X5949Y13069D2*
X21611D1*
X5975Y12940D2*
X21584D1*
X5985Y12812D2*
X21574D1*
X5979Y12683D2*
X21580D1*
X5957Y12554D2*
X21602D1*
X5918Y12426D2*
X21641D1*
X5859Y12297D2*
X21700D1*
X6541Y12169D2*
X21781D1*
X6714Y12040D2*
X21895D1*
X6821Y11911D2*
X22057D1*
X23218D2*
X23283D1*
X4276Y11783D2*
X4629D1*
X5214D2*
X5350D1*
X6893D2*
X22345D1*
X22930D2*
X23283D1*
X4276Y11654D2*
X5305D1*
X6937D2*
X23283D1*
X4276Y11526D2*
X5283D1*
X6962D2*
X23283D1*
X4276Y11397D2*
X5281D1*
X6964D2*
X23283D1*
X4276Y11268D2*
X5297D1*
X6945D2*
X23283D1*
X4276Y11140D2*
X5338D1*
X6907D2*
X23283D1*
X4276Y11011D2*
X5401D1*
X6842D2*
X21690D1*
X22650D2*
X23283D1*
X4276Y10883D2*
X5498D1*
X6744D2*
X21566D1*
X22771D2*
X23283D1*
X4276Y10754D2*
X5649D1*
X6594D2*
X21499D1*
X22838D2*
X23283D1*
X4276Y10625D2*
X5979D1*
X6265D2*
X6657D1*
X7713D2*
X21468D1*
X22871D2*
X23283D1*
X4276Y10497D2*
X6657D1*
X7713D2*
X21466D1*
X22871D2*
X23283D1*
X4276Y10368D2*
X6657D1*
X7713D2*
X21495D1*
X22842D2*
X23283D1*
X4276Y10240D2*
X6657D1*
X7713D2*
X13870D1*
X14223D2*
X21558D1*
X22779D2*
X23283D1*
X4276Y10111D2*
X6657D1*
X7713D2*
X13710D1*
X14381D2*
X21676D1*
X22664D2*
X23283D1*
X4276Y9982D2*
X6657D1*
X7713D2*
X13649D1*
X14444D2*
X21655D1*
X22684D2*
X23283D1*
X4276Y9854D2*
X6657D1*
X7713D2*
X13635D1*
X14458D2*
X21548D1*
X22790D2*
X23283D1*
X4276Y9725D2*
X6657D1*
X7713D2*
X12402D1*
X12814D2*
X13509D1*
X14430D2*
X21491D1*
X22848D2*
X23283D1*
X4276Y9596D2*
X6789D1*
X7581D2*
X12262D1*
X14347D2*
X21466D1*
X22873D2*
X23283D1*
X4276Y9468D2*
X6704D1*
X7666D2*
X12208D1*
X14028D2*
X21470D1*
X22867D2*
X23283D1*
X4276Y9339D2*
X6666D1*
X7705D2*
X12197D1*
X13898D2*
X21507D1*
X22832D2*
X23283D1*
X4276Y9211D2*
X6659D1*
X7711D2*
X12232D1*
X13770D2*
X21580D1*
X22759D2*
X23283D1*
X4276Y9082D2*
X6686D1*
X7684D2*
X12323D1*
X12895D2*
X21714D1*
X22625D2*
X23283D1*
X4276Y8953D2*
X6753D1*
X7617D2*
X21625D1*
X22714D2*
X23283D1*
X4276Y8825D2*
X6804D1*
X7566D2*
X21531D1*
X22808D2*
X23283D1*
X4276Y8696D2*
X6712D1*
X7658D2*
X21483D1*
X22857D2*
X23283D1*
X4276Y8568D2*
X6668D1*
X7702D2*
X21464D1*
X22875D2*
X23283D1*
X4276Y8439D2*
X6657D1*
X7713D2*
X21477D1*
X22863D2*
X23283D1*
X4276Y8310D2*
X6680D1*
X7690D2*
X21519D1*
X22820D2*
X23283D1*
X4276Y8182D2*
X6743D1*
X7627D2*
X21602D1*
X22737D2*
X23283D1*
X4276Y8053D2*
X6862D1*
X7508D2*
X21464D1*
X22875D2*
X23283D1*
X4276Y7925D2*
X6911D1*
X7459D2*
X21464D1*
X22875D2*
X23283D1*
X4276Y7796D2*
X6765D1*
X7605D2*
X21464D1*
X22875D2*
X23283D1*
X4276Y7667D2*
X6692D1*
X7678D2*
X21464D1*
X22875D2*
X23283D1*
X4276Y7539D2*
X6659D1*
X7711D2*
X21464D1*
X22875D2*
X23283D1*
X4276Y7410D2*
X6661D1*
X7709D2*
X21464D1*
X22875D2*
X23283D1*
X4276Y7281D2*
X6698D1*
X7672D2*
X21464D1*
X22875D2*
X23283D1*
X4276Y7153D2*
X6775D1*
X7595D2*
X21464D1*
X22875D2*
X23283D1*
X4276Y7024D2*
X5760D1*
X6484D2*
X6934D1*
X7437D2*
X21464D1*
X22875D2*
X23283D1*
X4276Y6896D2*
X5561D1*
X6681D2*
X23283D1*
X4276Y6767D2*
X5443D1*
X6801D2*
X23283D1*
X4276Y6638D2*
X5364D1*
X6880D2*
X23283D1*
X4276Y6510D2*
X5314D1*
X6929D2*
X23283D1*
X4276Y6381D2*
X5287D1*
X6957D2*
X23283D1*
X4276Y6253D2*
X5279D1*
X6966D2*
X23283D1*
X4276Y6124D2*
X5293D1*
X6951D2*
X23283D1*
X4276Y5995D2*
X5326D1*
X6917D2*
X23283D1*
X4276Y5867D2*
X4451D1*
X6860D2*
X22167D1*
X23108D2*
X23283D1*
X6771Y5738D2*
X21964D1*
X6635Y5610D2*
X21832D1*
X6387Y5481D2*
X21736D1*
X5892Y5352D2*
X21667D1*
X5940Y5224D2*
X21619D1*
X5971Y5095D2*
X21588D1*
X5983Y4967D2*
X21576D1*
X5981Y4838D2*
X21578D1*
X5963Y4709D2*
X21596D1*
X5928Y4581D2*
X21631D1*
X5873Y4452D2*
X21686D1*
X5798Y4323D2*
X21761D1*
X5970Y12730D2*
X5954Y12602D1*
X5922Y12476D1*
X5875Y12355D1*
X5813Y12240D1*
X5793Y12207D1*
X5891Y12242D1*
X5992Y12265D1*
X6095Y12274D1*
X6199Y12271D1*
X6302Y12255D1*
X6402Y12226D1*
X6497Y12185D1*
X6587Y12133D1*
X6669Y12069D1*
X6743Y11996D1*
X6807Y11914D1*
X6860Y11825D1*
X6902Y11730D1*
X6931Y11630D1*
X6948Y11528D1*
X6952Y11419D1*
X6942Y11315D1*
X6919Y11214D1*
X6884Y11116D1*
X6837Y11024D1*
X6779Y10938D1*
X6711Y10860D1*
X6633Y10791D1*
X6547Y10732D1*
X6455Y10684D1*
X6357Y10649D1*
X6256Y10626D1*
X6153Y10615D1*
X6049Y10618D1*
X5946Y10634D1*
X5846Y10662D1*
X5751Y10703D1*
X5661Y10755D1*
X5578Y10818D1*
X5504Y10891D1*
X5440Y10972D1*
X5386Y11061D1*
X5344Y11156D1*
X5314Y11256D1*
X5297Y11358D1*
X5292Y11462D1*
X5301Y11565D1*
X5322Y11667D1*
X5356Y11765D1*
X5405Y11863D1*
X5326Y11826D1*
X5204Y11783D1*
X5077Y11756D1*
X4947Y11745D1*
X4818Y11750D1*
X4689Y11771D1*
X4565Y11807D1*
X4446Y11859D1*
X4334Y11924D1*
X4261Y11979D1*
X4262Y10764D1*
Y5740D1*
X4355Y5806D1*
X4468Y5869D1*
X4589Y5918D1*
X4714Y5951D1*
X4843Y5969D1*
X4973Y5971D1*
X5102Y5956D1*
X5228Y5926D1*
X5350Y5880D1*
X5405Y5854D1*
X5358Y5947D1*
X5324Y6045D1*
X5302Y6146D1*
X5292Y6250D1*
X5296Y6353D1*
X5313Y6456D1*
X5342Y6556D1*
X5384Y6651D1*
X5437Y6740D1*
X5501Y6822D1*
X5574Y6895D1*
X5656Y6959D1*
X5746Y7012D1*
X5841Y7053D1*
X5941Y7082D1*
X6044Y7098D1*
X6147Y7101D1*
X6251Y7092D1*
X6352Y7069D1*
X6450Y7034D1*
X6543Y6987D1*
X6629Y6929D1*
X6707Y6861D1*
X6776Y6783D1*
X6835Y6697D1*
X6882Y6605D1*
X6918Y6507D1*
X6941Y6406D1*
X6951Y6303D1*
X6948Y6194D1*
X6932Y6091D1*
X6903Y5991D1*
X6862Y5896D1*
X6809Y5807D1*
X6746Y5724D1*
X6673Y5651D1*
X6591Y5587D1*
X6502Y5534D1*
X6407Y5492D1*
X6307Y5463D1*
X6204Y5446D1*
X6101Y5442D1*
X5997Y5451D1*
X5896Y5473D1*
X5798Y5508D1*
X5792Y5509D1*
X5858Y5398D1*
X5909Y5278D1*
X5946Y5154D1*
X5967Y5026D1*
X5972Y4921D1*
X5964Y4792D1*
X5940Y4664D1*
X5900Y4540D1*
X5846Y4423D1*
X5777Y4312D1*
X5739Y4262D1*
X21822D1*
X21775Y4323D1*
X21707Y4434D1*
X21654Y4552D1*
X21616Y4676D1*
X21594Y4804D1*
X21587Y4934D1*
X21597Y5063D1*
X21622Y5191D1*
X21663Y5314D1*
X21719Y5431D1*
X21789Y5541D1*
X21872Y5640D1*
X21967Y5729D1*
X22071Y5806D1*
X22185Y5869D1*
X22305Y5918D1*
X22431Y5951D1*
X22559Y5969D1*
X22689Y5971D1*
X22818Y5956D1*
X22945Y5926D1*
X23066Y5880D1*
X23181Y5820D1*
X23299Y5737D1*
X23297Y6237D1*
Y11976D1*
X23215Y11917D1*
X23102Y11853D1*
X22982Y11803D1*
X22857Y11768D1*
X22729Y11749D1*
X22599Y11745D1*
X22470Y11758D1*
X22343Y11787D1*
X22221Y11831D1*
X22105Y11890D1*
X21998Y11962D1*
X21900Y12048D1*
X21813Y12144D1*
X21739Y12251D1*
X21679Y12366D1*
X21633Y12488D1*
X21603Y12614D1*
X21589Y12743D1*
X21590Y12873D1*
X21608Y13001D1*
X21641Y13127D1*
X21690Y13247D1*
X21753Y13361D1*
X21820Y13455D1*
X5737D1*
X5792Y13383D1*
X5858Y13272D1*
X5909Y13152D1*
X5946Y13028D1*
X5967Y12900D1*
X5972Y12795D1*
X5970Y12730D1*
X21542Y8129D2*
X21665Y8130D1*
X21603Y8196D1*
X21552Y8272D1*
X21513Y8354D1*
X21488Y8441D1*
X21478Y8531D1*
X21481Y8622D1*
X21499Y8711D1*
X21530Y8797D1*
X21575Y8876D1*
X21631Y8947D1*
X21699Y9008D1*
X21769Y9055D1*
X21685Y9113D1*
X21637Y9157D1*
X21595Y9207D1*
X21559Y9260D1*
X21528Y9318D1*
X21505Y9378D1*
X21488Y9441D1*
X21479Y9506D1*
X21477Y9570D1*
X21483Y9635D1*
X21495Y9699D1*
X21515Y9761D1*
X21542Y9820D1*
X21575Y9876D1*
X21614Y9927D1*
X21659Y9974D1*
X21709Y10016D1*
X21769Y10054D1*
X21685Y10113D1*
X21637Y10157D1*
X21595Y10207D1*
X21559Y10260D1*
X21528Y10318D1*
X21505Y10378D1*
X21488Y10441D1*
X21479Y10506D1*
X21477Y10570D1*
X21483Y10635D1*
X21495Y10699D1*
X21515Y10761D1*
X21542Y10820D1*
X21575Y10876D1*
X21614Y10927D1*
X21659Y10974D1*
X21709Y11016D1*
X21763Y11052D1*
X21821Y11081D1*
X21882Y11104D1*
X21945Y11119D1*
X22052Y11128D1*
X22287Y11129D1*
X22310D1*
X22375Y11122D1*
X22439Y11109D1*
X22500Y11088D1*
X22559Y11061D1*
X22614Y11027D1*
X22666Y10987D1*
X22712Y10942D1*
X22753Y10891D1*
X22788Y10837D1*
X22816Y10778D1*
X22838Y10717D1*
X22853Y10654D1*
X22861Y10555D1*
X22858Y10490D1*
X22847Y10426D1*
X22829Y10364D1*
X22804Y10304D1*
X22772Y10247D1*
X22734Y10195D1*
X22691Y10146D1*
X22642Y10104D1*
X22569Y10056D1*
X22666Y9987D1*
X22712Y9942D1*
X22753Y9891D1*
X22788Y9837D1*
X22816Y9778D1*
X22838Y9717D1*
X22853Y9654D1*
X22861Y9555D1*
X22858Y9490D1*
X22847Y9426D1*
X22829Y9364D1*
X22804Y9304D1*
X22772Y9247D1*
X22734Y9195D1*
X22691Y9146D1*
X22642Y9104D1*
X22569Y9056D1*
X22646Y9004D1*
X22712Y8942D1*
X22768Y8870D1*
X22811Y8790D1*
X22842Y8705D1*
X22858Y8615D1*
X22861Y8529D1*
X22850Y8439D1*
X22824Y8352D1*
X22785Y8270D1*
X22734Y8195D1*
X22672Y8129D1*
X22861D1*
Y6981D1*
X21477D1*
Y8129D1*
X21542D1*
X6735Y10751D2*
X7700D1*
Y9721D1*
X7398D1*
X7469Y9681D1*
X7521Y9642D1*
X7568Y9597D1*
X7608Y9546D1*
X7642Y9490D1*
X7668Y9431D1*
X7687Y9369D1*
X7697Y9305D1*
X7700Y9252D1*
X7696Y9187D1*
X7684Y9123D1*
X7664Y9062D1*
X7636Y9003D1*
X7601Y8948D1*
X7560Y8898D1*
X7516Y8858D1*
X7568Y8809D1*
X7608Y8759D1*
X7642Y8703D1*
X7668Y8644D1*
X7687Y8582D1*
X7697Y8517D1*
X7700Y8465D1*
X7696Y8400D1*
X7684Y8336D1*
X7664Y8274D1*
X7636Y8216D1*
X7601Y8161D1*
X7560Y8111D1*
X7512Y8067D1*
X7459Y8029D1*
X7402Y7998D1*
X7336Y7973D1*
X7413Y7942D1*
X7480Y7902D1*
X7540Y7853D1*
X7593Y7795D1*
X7635Y7730D1*
X7668Y7659D1*
X7689Y7585D1*
X7699Y7507D1*
X7697Y7428D1*
X7684Y7352D1*
X7659Y7278D1*
X7623Y7209D1*
X7577Y7146D1*
X7522Y7091D1*
X7459Y7044D1*
X7391Y7008D1*
X7317Y6982D1*
X7240Y6968D1*
X7163Y6966D1*
X7085Y6975D1*
X7010Y6996D1*
X6939Y7028D1*
X6874Y7070D1*
X6815Y7122D1*
X6766Y7181D1*
X6725Y7248D1*
X6696Y7320D1*
X6677Y7396D1*
X6670Y7473D1*
X6675Y7551D1*
X6691Y7627D1*
X6719Y7700D1*
X6758Y7768D1*
X6806Y7829D1*
X6863Y7882D1*
X6927Y7926D1*
X6997Y7960D1*
X7033Y7973D1*
X6962Y8000D1*
X6906Y8032D1*
X6853Y8070D1*
X6806Y8115D1*
X6766Y8166D1*
X6731Y8221D1*
X6704Y8280D1*
X6685Y8342D1*
X6673Y8406D1*
X6670Y8471D1*
X6675Y8535D1*
X6688Y8599D1*
X6709Y8660D1*
X6737Y8719D1*
X6773Y8773D1*
X6815Y8822D1*
X6852Y8857D1*
X6766Y8953D1*
X6731Y9008D1*
X6704Y9067D1*
X6685Y9129D1*
X6673Y9193D1*
X6670Y9258D1*
X6675Y9323D1*
X6688Y9386D1*
X6709Y9448D1*
X6737Y9506D1*
X6773Y9560D1*
X6815Y9610D1*
X6863Y9654D1*
X6916Y9691D1*
X6971Y9720D1*
X6670Y9721D1*
Y10751D1*
X6735D1*
X12907Y9640D2*
X13435D1*
X13647Y9850D1*
X13648Y9917D1*
X13660Y9981D1*
X13683Y10041D1*
X13714Y10098D1*
X13755Y10149D1*
X13803Y10192D1*
X13858Y10227D1*
X13917Y10253D1*
X13980Y10269D1*
X14045Y10275D1*
X14109Y10270D1*
X14173Y10254D1*
X14232Y10229D1*
X14287Y10194D1*
X14336Y10151D1*
X14376Y10100D1*
X14409Y10044D1*
X14431Y9983D1*
X14444Y9920D1*
X14446Y9875D1*
X14441Y9810D1*
X14425Y9747D1*
X14400Y9687D1*
X14365Y9633D1*
X14322Y9584D1*
X14271Y9544D1*
X14215Y9512D1*
X14154Y9489D1*
X14090Y9477D1*
X14023Y9475D1*
X13734Y9187D1*
X13683Y9147D1*
X13623Y9121D1*
X13546Y9109D1*
X12907D1*
X12884Y9084D1*
X12834Y9044D1*
X12777Y9012D1*
X12716Y8989D1*
X12652Y8977D1*
X12588Y8975D1*
X12523Y8984D1*
X12461Y9003D1*
X12403Y9031D1*
X12350Y9069D1*
X12304Y9115D1*
X12266Y9168D1*
X12237Y9226D1*
X12218Y9288D1*
X12209Y9352D1*
X12211Y9417D1*
X12223Y9481D1*
X12245Y9541D1*
X12277Y9598D1*
X12317Y9649D1*
X12366Y9692D1*
X12420Y9727D1*
X12480Y9753D1*
X12543Y9769D1*
X12607Y9775D1*
X12672Y9770D1*
X12735Y9754D1*
X12795Y9729D1*
X12850Y9694D1*
X12907Y9640D1*
X21477Y8555D2*
X22861D1*
X7185Y7480D2*
Y6966D1*
X6670Y7480D2*
X7700D1*
X6122Y12275D2*
Y10615D1*
X5292Y11445D2*
X6952D1*
X6122Y7101D2*
Y5442D1*
X5292Y6272D2*
X6952D1*
D27*
X22169Y7555D3*
D28*
Y8555D3*
Y9555D3*
Y10555D3*
D29*
X7185Y10236D3*
D30*
Y9252D3*
Y8465D3*
Y7480D3*
D31*
X6122Y11445D3*
Y6272D3*
M02*
