M48
INCH
T01C0.0191
T02C0.0354
T03C0.0512
T04C0.0906
T05C0.0984
%
T01
X+010484Y+013250
X+011614Y+010827
X+012609Y+009375
X+012992Y+008858
X+014046Y+009875
X+014075Y+011614
X+013976Y+012795
X+017796Y+009812
X+017921Y+009187
X+018671Y+009187
X+019671Y+009187
X+020421Y+009187
X+021234Y+009187
X+019046Y+005937
X+020171Y+005187
X+011122Y+005118
X+010335Y+008465
X+010335Y+009547
X+008858Y+010925
T02
X+007185Y+010236
X+007185Y+009252
X+007185Y+008465
X+007185Y+007480
T03
X+022169Y+007555
X+022169Y+008555
X+022169Y+009555
X+022169Y+010555
T04
X+006122Y+011445
X+006122Y+006272
T05
X+004921Y+012795
X+004921Y+004921
X+022638Y+004921
X+022638Y+012795
T00
M30
