G04 DipTrace 2.4.0.2*
%INTop.gbr*%
%MOIN*%
%ADD14C,0.013*%
%ADD15C,0.0197*%
%ADD16C,0.0125*%
%ADD17C,0.0394*%
%ADD19R,0.063X0.0709*%
%ADD20R,0.0709X0.063*%
%ADD21R,0.0394X0.0433*%
%ADD22R,0.0433X0.0394*%
%ADD24R,0.0827X0.0551*%
%ADD26R,0.0315X0.063*%
%ADD27R,0.0984X0.0748*%
%ADD28O,0.0984X0.0748*%
%ADD29R,0.063X0.063*%
%ADD30C,0.063*%
%ADD31C,0.126*%
%ADD32R,0.0394X0.126*%
%ADD34R,0.0413X0.0256*%
%ADD36R,0.0236X0.0236*%
%ADD37R,0.0787X0.0236*%
%ADD38R,0.0709X0.0157*%
%ADD39R,0.0236X0.0433*%
%ADD40C,0.04*%
%FSLAX44Y44*%
G04*
G70*
G90*
G75*
G01*
%LNTop*%
%LPD*%
X20171Y4687D2*
D14*
Y5187D1*
X19046Y5937D2*
Y5406D1*
X20796Y4727D2*
X20756Y4687D1*
X20171D1*
X19921Y12008D2*
X19882D1*
Y8750D1*
X19546Y8414D1*
X18878Y11258D2*
X19882D1*
Y12008D1*
X18878Y10630D2*
Y11258D1*
Y10630D2*
Y9083D1*
X19546Y8414D1*
X14724Y12697D2*
X14075D1*
X13976Y12795D1*
X14724Y11516D2*
X14803D1*
X15394Y10925D1*
X14724Y11516D2*
X14173D1*
X14075Y11614D1*
X12992Y8346D2*
Y8858D1*
X10571Y4724D2*
Y5413D1*
Y4724D2*
X11189D1*
X11624D1*
X12046Y5147D1*
X7185Y7480D2*
Y7335D1*
X6122Y6272D1*
X8976Y7657D2*
X8386D1*
X8268Y7539D1*
X8976Y7402D2*
X8406D1*
X8268Y7539D1*
X9327Y11564D2*
X10286D1*
X10433Y11417D1*
Y10945D1*
X10512Y11024D1*
X8268Y7539D2*
X7244D1*
X7185Y7480D1*
X8976Y9449D2*
X9843D1*
X10124Y9731D1*
X10433Y10039D1*
Y10945D1*
X8976Y8681D2*
X10118D1*
X10335Y8465D1*
X11189Y4724D2*
Y5051D1*
X11122Y5118D1*
X10124Y9731D2*
X10151D1*
X10335Y9547D1*
X8858Y10925D2*
Y11095D1*
X9327Y11564D1*
X11811Y8425D2*
X11260D1*
X11122Y8563D1*
Y10335D1*
X11614Y10827D1*
X8996Y5413D2*
X9902D1*
X18127Y4687D2*
D15*
Y4312D1*
X16171D1*
Y5411D1*
X16127Y5455D1*
Y6768D1*
X16171Y6812D1*
X18127Y4312D2*
X21171D1*
X21296Y4437D1*
Y4727D1*
X18209Y10630D2*
Y12500D1*
X18467Y12758D1*
X18878D1*
X18209Y10630D2*
Y10531D1*
X16535D1*
X16240Y10236D1*
Y9006D1*
X16171Y8937D1*
X8976D2*
X8543D1*
X8268Y8661D1*
Y8209D1*
X11811Y7657D2*
X12972D1*
X12992Y7677D1*
X9327Y12312D2*
X10523D1*
X11024Y11811D1*
Y10728D1*
X10827Y10531D1*
Y8937D1*
Y7657D1*
X11811D1*
X8976Y8937D2*
X10827D1*
Y7657D2*
Y6969D1*
X11296Y6500D1*
X11929D1*
X15859D1*
X16171Y6812D1*
X11929Y6500D2*
D14*
X11804Y6375D1*
X12046D1*
Y6250D1*
X15394Y10335D2*
X15650D1*
X15846Y10531D1*
Y11713D1*
X16142Y12008D1*
Y12598D1*
X16301Y12758D1*
X16752D1*
X14724Y12106D2*
X13878D1*
X13359Y11587D1*
Y7256D1*
X12992Y6890D1*
X11811D1*
X16752Y11758D2*
D16*
Y12258D1*
X15394Y13287D2*
Y12697D1*
Y13287D2*
D14*
Y13386D1*
X17323D1*
X17618Y13091D1*
Y11024D1*
X17421Y10827D1*
X16339D1*
X16142Y11024D1*
Y11516D1*
X16384Y11758D1*
X16752D1*
X22169Y9555D2*
D16*
X21941D1*
X21421Y10075D1*
Y11375D1*
X21358Y11437D1*
Y11575D1*
X20827D1*
Y11634D1*
X18878Y11758D2*
X19337D1*
X19488Y11909D1*
Y12205D1*
X19685Y12402D1*
X20177D1*
X20374Y12205D1*
Y11811D1*
X20571Y11614D1*
X20807D1*
X20827Y11634D1*
X21358Y12441D2*
X21417D1*
X21671Y12187D1*
Y11562D1*
X22169Y11064D1*
Y10555D1*
X21358Y12441D2*
X20827D1*
Y12382D1*
X20591D1*
X20276Y12697D1*
X19619D1*
X19180Y12258D1*
X18878D1*
X19420Y5406D2*
D14*
Y4769D1*
X19502Y4687D1*
X18796D2*
X19502D1*
X14724Y13287D2*
X13147D1*
X12671Y12812D1*
Y10625D1*
X12263Y10217D1*
X11811D1*
X8996Y4724D2*
X9902D1*
X20046Y5727D2*
X19756D1*
X19671Y5812D1*
Y5937D1*
X19420Y6188D1*
Y6469D1*
X17466Y5455D2*
X18024D1*
X18046Y5477D1*
X18318D1*
X18390Y5406D1*
X18672D1*
X20796Y5397D2*
X21296D1*
X22169Y7555D2*
D17*
X22165Y7551D1*
Y6299D1*
X8421Y11938D2*
D15*
X8420Y11937D1*
X7859D1*
X7185Y11263D1*
Y10236D1*
X8976Y9961D2*
D14*
X8189D1*
X8071Y9843D1*
Y8899D1*
X7636Y8465D1*
X7185D1*
X8976Y10217D2*
X8076D1*
X7859Y10000D1*
Y9125D1*
X7671Y8937D1*
X7500D1*
X7185Y9252D1*
X8327Y5413D2*
Y5965D1*
X8563Y6201D1*
X9547D1*
X9941Y6594D1*
Y8071D1*
X9587Y8425D1*
X8976D1*
X8327Y4724D2*
X8268D1*
X7874Y5118D1*
Y5906D1*
X8465Y6496D1*
X9449D1*
X9646Y6693D1*
Y7972D1*
X9449Y8169D1*
X8976D1*
Y9705D2*
X9705D1*
X9843Y9843D1*
Y11024D1*
X15394Y12106D2*
D16*
Y11516D1*
Y12106D2*
D14*
X15650D1*
X15846Y12303D1*
Y12795D1*
X16142Y13091D1*
X17224D1*
X17323Y12992D1*
Y11258D1*
X16752D1*
X14724Y10335D2*
Y10925D1*
X11811Y7913D2*
X12441D1*
X12609Y8081D1*
Y9375D1*
X14046Y9875D2*
X14264D1*
X14724Y10335D1*
D40*
X20171Y5187D3*
X19046Y5937D3*
X13976Y12795D3*
X14075Y11614D3*
X12992Y8858D3*
X10335Y8465D3*
X11122Y5118D3*
X10335Y8465D3*
Y9547D3*
Y8465D3*
X8858Y10925D3*
X11614Y10827D3*
X12992Y8858D3*
X10335Y9547D3*
X12609Y9375D3*
X14046Y9875D3*
X10484Y13250D3*
X21234Y9187D3*
X18671D3*
X17921D3*
X17796Y9812D3*
X19671Y9187D3*
X20421D3*
X18999Y7493D2*
D14*
X21343D1*
X18999Y7365D2*
X21343D1*
X18999Y7236D2*
X21343D1*
X18999Y7108D2*
X21343D1*
X18999Y6979D2*
X21343D1*
X19004Y6850D2*
X19089D1*
X19999D2*
X20093D1*
X20561D2*
X21343D1*
X19004Y6722D2*
X19089D1*
X19999D2*
X20093D1*
X20561D2*
X21343D1*
X19004Y6593D2*
X19089D1*
X19999D2*
X20093D1*
X20561D2*
X21343D1*
X19004Y6465D2*
X19089D1*
X19999D2*
X20093D1*
X20561D2*
X21343D1*
X20561Y6336D2*
X21343D1*
X20561Y6207D2*
X21343D1*
X20561Y6079D2*
X21343D1*
X19102Y6379D2*
Y6885D1*
X19108D1*
X19112Y6902D1*
X19162Y6939D1*
X19921D1*
X19976Y6908D1*
X19986Y6875D1*
Y6377D1*
X20106D1*
Y6875D1*
X20138Y6929D1*
X20171Y6939D1*
X20484D1*
X20539Y6908D1*
X20549Y6875D1*
Y6002D1*
X21356D1*
Y7622D1*
X18986D1*
Y6885D1*
X18990D1*
Y6376D1*
X19102Y6377D1*
X16937Y7306D2*
X18718D1*
X16937Y7177D2*
X18718D1*
X16937Y7049D2*
X18718D1*
X16937Y6920D2*
X18718D1*
X16937Y6791D2*
X18714D1*
X16937Y6663D2*
X18714D1*
X16937Y6534D2*
X18714D1*
X16937Y6406D2*
X18714D1*
X16937Y6277D2*
X18156D1*
X18728Y6314D2*
X18731Y6894D1*
Y7372D1*
X16924D1*
Y6252D1*
X18168D1*
X18175Y6277D1*
X18225Y6314D1*
X18727D1*
X13636Y10868D2*
X14294D1*
X13636Y10740D2*
X14294D1*
X13636Y10611D2*
X14294D1*
X16125D2*
X16173D1*
X13636Y10483D2*
X14294D1*
X16119D2*
X16406D1*
X13636Y10354D2*
X14294D1*
X16056D2*
X16406D1*
X13636Y10225D2*
X13842D1*
X15928D2*
X16406D1*
X13636Y10097D2*
X13702D1*
X15823D2*
X16406D1*
X15823Y9968D2*
X16406D1*
X14617Y9840D2*
X16406D1*
X14489Y9711D2*
X16406D1*
X13636Y9582D2*
X13761D1*
X14333D2*
X16406D1*
X13636Y9454D2*
X16406D1*
X13636Y9325D2*
X16406D1*
X13636Y9197D2*
X16406D1*
X13636Y9068D2*
X16406D1*
X13636Y8939D2*
X16406D1*
X13636Y8811D2*
X16406D1*
X13636Y8682D2*
X16406D1*
X13636Y8553D2*
X16406D1*
X13636Y8425D2*
X16406D1*
X13636Y8296D2*
X16406D1*
X13636Y8168D2*
X16406D1*
X13636Y8039D2*
X16406D1*
X13636Y7910D2*
X16406D1*
X13636Y7782D2*
X16406D1*
X13636Y7653D2*
X16280D1*
X13636Y7525D2*
X16280D1*
X13636Y7396D2*
X16280D1*
X13636Y7267D2*
X16280D1*
X13610Y7139D2*
X16280D1*
X13500Y7010D2*
X16280D1*
X13372Y6882D2*
X16280D1*
X13243Y6753D2*
X16280D1*
X13188Y6624D2*
X16280D1*
X13188Y6496D2*
X16280D1*
X13188Y6367D2*
X16280D1*
X13188Y6239D2*
X16280D1*
X13188Y6110D2*
X16280D1*
X13188Y5981D2*
X16280D1*
X13188Y5853D2*
X16280D1*
X13188Y5724D2*
X16280D1*
X13188Y5595D2*
X16280D1*
X13188Y5467D2*
X16280D1*
X13188Y5338D2*
X16280D1*
X13188Y5210D2*
X16280D1*
X13188Y5081D2*
X16280D1*
X13188Y4952D2*
X16280D1*
X13188Y4824D2*
X16280D1*
X13188Y4695D2*
X16280D1*
X13188Y4567D2*
X16280D1*
X13188Y4438D2*
X16280D1*
X13188Y4309D2*
X16280D1*
X14309Y10528D2*
X14308Y10723D1*
Y10997D1*
X13623D1*
X13624Y7256D1*
X13616Y7192D1*
X13593Y7132D1*
X13546Y7069D1*
X13178Y6701D1*
X13174Y6605D1*
Y4252D1*
X16294D1*
Y7625D1*
X16326Y7679D1*
X16359Y7689D1*
X16419D1*
Y10562D1*
X16339D1*
X16274Y10570D1*
X16214Y10593D1*
X16151Y10639D1*
X16112Y10678D1*
X16111Y10531D1*
X16104Y10467D1*
X16080Y10407D1*
X16034Y10344D1*
X15817Y10129D1*
X15810Y10082D1*
Y9938D1*
X14977Y9940D1*
X14701Y9938D1*
X14452Y9687D1*
X14378Y9635D1*
X14271Y9544D1*
X14215Y9512D1*
X14154Y9489D1*
X14090Y9477D1*
X14025Y9475D1*
X13961Y9484D1*
X13899Y9503D1*
X13841Y9531D1*
X13788Y9569D1*
X13742Y9615D1*
X13704Y9668D1*
X13675Y9726D1*
X13656Y9788D1*
X13647Y9852D1*
X13648Y9917D1*
X13660Y9981D1*
X13683Y10041D1*
X13714Y10098D1*
X13755Y10149D1*
X13803Y10192D1*
X13858Y10227D1*
X13917Y10253D1*
X13980Y10269D1*
X14045Y10275D1*
X14109Y10270D1*
X14173Y10254D1*
X14241Y10223D1*
X14308Y10293D1*
X14310Y10732D1*
X17062Y9118D2*
X21385D1*
X17062Y8990D2*
X21513D1*
X17062Y8861D2*
X22593D1*
X17062Y8733D2*
X22593D1*
X17062Y8604D2*
X22593D1*
X17062Y8475D2*
X22593D1*
X17062Y8347D2*
X22593D1*
X17062Y8218D2*
X21342D1*
X17062Y8090D2*
X18718D1*
X17062Y7961D2*
X18718D1*
X17062Y7832D2*
X18718D1*
X17062Y7704D2*
X18718D1*
X17049Y9182D2*
Y7689D1*
X18731D1*
Y8062D1*
X18763Y8117D1*
X18796Y8127D1*
X21356D1*
Y8187D1*
X21388Y8242D1*
X21421Y8252D1*
X22606D1*
Y8872D1*
X21670Y8873D1*
X21625Y8891D1*
X21268Y9248D1*
X20647Y9247D1*
X17049D1*
Y9182D1*
X5841Y13326D2*
X12798D1*
X5904Y13198D2*
X12668D1*
X5949Y13069D2*
X12540D1*
X5975Y12940D2*
X12427D1*
X13188D2*
X14294D1*
X5985Y12812D2*
X12394D1*
X13058D2*
X14294D1*
X5979Y12683D2*
X12394D1*
X12950D2*
X14294D1*
X5957Y12554D2*
X8907D1*
X10709D2*
X12394D1*
X12950D2*
X14294D1*
X5918Y12426D2*
X8907D1*
X10843D2*
X12394D1*
X12950D2*
X14294D1*
X5859Y12297D2*
X8907D1*
X10973D2*
X12394D1*
X12950D2*
X13681D1*
X6541Y12169D2*
X7658D1*
X8841D2*
X8907D1*
X11101D2*
X12394D1*
X12950D2*
X13553D1*
X6714Y12040D2*
X7526D1*
X8841D2*
X8907D1*
X11229D2*
X12394D1*
X12950D2*
X13423D1*
X6821Y11911D2*
X7398D1*
X8841D2*
X10488D1*
X11318D2*
X12394D1*
X12950D2*
X13296D1*
X21947D2*
X22057D1*
X23218D2*
X23283D1*
X4276Y11783D2*
X4629D1*
X5214D2*
X5350D1*
X6893D2*
X7271D1*
X8841D2*
X8907D1*
X9747D2*
X10616D1*
X11334D2*
X12394D1*
X12950D2*
X13168D1*
X13943D2*
X14294D1*
X21947D2*
X22345D1*
X22930D2*
X23283D1*
X4276Y11654D2*
X5305D1*
X6937D2*
X7141D1*
X8841D2*
X8907D1*
X9747D2*
X10711D1*
X11334D2*
X12394D1*
X12950D2*
X13089D1*
X13813D2*
X14294D1*
X19617D2*
X20151D1*
X21963D2*
X23283D1*
X4276Y11526D2*
X5283D1*
X7883D2*
X8907D1*
X9747D2*
X10711D1*
X11334D2*
X12394D1*
X12950D2*
X13080D1*
X13685D2*
X14294D1*
X19485D2*
X20275D1*
X22091D2*
X23283D1*
X4276Y11397D2*
X5281D1*
X7753D2*
X8907D1*
X11334D2*
X12394D1*
X12950D2*
X13080D1*
X13636D2*
X14294D1*
X19485D2*
X20407D1*
X22221D2*
X23283D1*
X4276Y11268D2*
X5297D1*
X7625D2*
X8907D1*
X11334D2*
X12394D1*
X12950D2*
X13080D1*
X13636D2*
X14294D1*
X19485D2*
X21028D1*
X22349D2*
X23283D1*
X4276Y11140D2*
X5338D1*
X7497D2*
X9412D1*
X11334D2*
X12394D1*
X12950D2*
X13080D1*
X19485D2*
X21146D1*
X22434D2*
X23283D1*
X4276Y11011D2*
X5401D1*
X7495D2*
X9412D1*
X11334D2*
X12394D1*
X12950D2*
X13080D1*
X19485D2*
X21146D1*
X22650D2*
X23283D1*
X4276Y10883D2*
X5498D1*
X6744D2*
X6875D1*
X7495D2*
X9412D1*
X11334D2*
X12394D1*
X12950D2*
X13080D1*
X19308D2*
X21146D1*
X22771D2*
X23283D1*
X4276Y10754D2*
X5649D1*
X6594D2*
X6875D1*
X7495D2*
X9412D1*
X11334D2*
X12394D1*
X12950D2*
X13080D1*
X19308D2*
X21146D1*
X22838D2*
X23283D1*
X4276Y10625D2*
X5979D1*
X6265D2*
X6657D1*
X7713D2*
X9564D1*
X10120D2*
X10531D1*
X11316D2*
X12285D1*
X12950D2*
X13080D1*
X19308D2*
X21146D1*
X22871D2*
X23283D1*
X4276Y10497D2*
X6657D1*
X7713D2*
X9564D1*
X10120D2*
X10514D1*
X11227D2*
X12157D1*
X12916D2*
X13080D1*
X19308D2*
X21146D1*
X22871D2*
X23283D1*
X4276Y10368D2*
X6657D1*
X7713D2*
X7839D1*
X10120D2*
X10514D1*
X11137D2*
X11243D1*
X12802D2*
X13080D1*
X19308D2*
X21146D1*
X22842D2*
X23283D1*
X4276Y10240D2*
X6657D1*
X10120D2*
X10514D1*
X11137D2*
X11243D1*
X12674D2*
X13080D1*
X19308D2*
X21146D1*
X22779D2*
X23283D1*
X4276Y10111D2*
X6657D1*
X10120D2*
X10514D1*
X11137D2*
X11243D1*
X12546D2*
X13080D1*
X16698D2*
X21146D1*
X22664D2*
X23283D1*
X4276Y9982D2*
X6657D1*
X10120D2*
X10514D1*
X11137D2*
X11243D1*
X12400D2*
X13080D1*
X16698D2*
X21162D1*
X22684D2*
X23283D1*
X4276Y9854D2*
X6657D1*
X10120D2*
X10514D1*
X11137D2*
X11243D1*
X12378D2*
X13080D1*
X16698D2*
X21257D1*
X22790D2*
X23283D1*
X4276Y9725D2*
X6657D1*
X10094D2*
X10514D1*
X11137D2*
X11243D1*
X12814D2*
X13080D1*
X16698D2*
X21387D1*
X22848D2*
X23283D1*
X4276Y9596D2*
X6789D1*
X9984D2*
X10514D1*
X11137D2*
X11243D1*
X12954D2*
X13080D1*
X16698D2*
X21466D1*
X22873D2*
X23283D1*
X4276Y9468D2*
X6704D1*
X9836D2*
X10514D1*
X11137D2*
X11243D1*
X13011D2*
X13082D1*
X16700D2*
X21470D1*
X22867D2*
X23283D1*
X4276Y9339D2*
X6666D1*
X9544D2*
X10514D1*
X11137D2*
X11243D1*
X16700D2*
X21507D1*
X22832D2*
X23283D1*
X4276Y9211D2*
X6659D1*
X11137D2*
X11243D1*
X12987D2*
X13082D1*
X16700D2*
X21580D1*
X22759D2*
X23283D1*
X4276Y9082D2*
X6686D1*
X11137D2*
X11243D1*
X12895D2*
X13080D1*
X16700D2*
X21714D1*
X22625D2*
X23283D1*
X4276Y8953D2*
X6753D1*
X11137D2*
X11243D1*
X12887D2*
X13080D1*
X16700D2*
X17733D1*
X18985D2*
X21625D1*
X22714D2*
X23283D1*
X4276Y8825D2*
X6804D1*
X11137D2*
X11243D1*
X12887D2*
X13080D1*
X16700D2*
X17733D1*
X18985D2*
X21531D1*
X22808D2*
X23283D1*
X4276Y8696D2*
X6712D1*
X11137D2*
X11243D1*
X16700D2*
X17733D1*
X18985D2*
X21483D1*
X22857D2*
X23283D1*
X4276Y8568D2*
X6668D1*
X9832D2*
X10514D1*
X11137D2*
X11243D1*
X16700D2*
X17733D1*
X18985D2*
X21464D1*
X22875D2*
X23283D1*
X4276Y8439D2*
X6657D1*
X9960D2*
X10514D1*
X11137D2*
X11243D1*
X16700D2*
X17733D1*
X18985D2*
X21477D1*
X22863D2*
X23283D1*
X4276Y8310D2*
X6680D1*
X10090D2*
X10514D1*
X11137D2*
X11243D1*
X16700D2*
X17733D1*
X18985D2*
X21519D1*
X22820D2*
X23283D1*
X4276Y8182D2*
X6743D1*
X7627D2*
X7857D1*
X10195D2*
X10514D1*
X11137D2*
X11243D1*
X16700D2*
X17733D1*
X18985D2*
X21602D1*
X22737D2*
X23283D1*
X4276Y8053D2*
X6862D1*
X7508D2*
X7857D1*
X10220D2*
X10514D1*
X11137D2*
X11243D1*
X16700D2*
X21464D1*
X22875D2*
X23283D1*
X4276Y7925D2*
X6911D1*
X7459D2*
X7857D1*
X10220D2*
X10514D1*
X16700D2*
X21464D1*
X22875D2*
X23283D1*
X4276Y7796D2*
X6765D1*
X7605D2*
X7857D1*
X10220D2*
X10514D1*
X16700D2*
X18740D1*
X22875D2*
X23283D1*
X4276Y7667D2*
X6692D1*
X7678D2*
X7857D1*
X10220D2*
X10514D1*
X16700D2*
X18675D1*
X22875D2*
X23283D1*
X4276Y7539D2*
X6659D1*
X7711D2*
X7857D1*
X10220D2*
X10514D1*
X22875D2*
X23283D1*
X4276Y7410D2*
X6661D1*
X7709D2*
X7857D1*
X10220D2*
X10514D1*
X22875D2*
X23283D1*
X4276Y7281D2*
X6698D1*
X7672D2*
X7857D1*
X10220D2*
X10514D1*
X22875D2*
X23283D1*
X4276Y7153D2*
X6775D1*
X7595D2*
X7857D1*
X10220D2*
X10514D1*
X22875D2*
X23283D1*
X4276Y7024D2*
X5760D1*
X6484D2*
X6934D1*
X7437D2*
X8409D1*
X10220D2*
X10514D1*
X22875D2*
X23283D1*
X4276Y6896D2*
X5561D1*
X6681D2*
X8409D1*
X10220D2*
X10525D1*
X22574D2*
X23283D1*
X4276Y6767D2*
X5443D1*
X6801D2*
X8409D1*
X10220D2*
X10594D1*
X22694D2*
X23283D1*
X4276Y6638D2*
X5364D1*
X6880D2*
X8219D1*
X10220D2*
X10722D1*
X22694D2*
X23283D1*
X4276Y6510D2*
X5314D1*
X6929D2*
X8091D1*
X10206D2*
X10851D1*
X22694D2*
X23283D1*
X4276Y6381D2*
X5287D1*
X6957D2*
X7963D1*
X10116D2*
X10979D1*
X22694D2*
X23283D1*
X4276Y6253D2*
X5279D1*
X6966D2*
X7833D1*
X9986D2*
X11115D1*
X22694D2*
X23283D1*
X4276Y6124D2*
X5293D1*
X6951D2*
X7705D1*
X9858D2*
X11479D1*
X12613D2*
X12896D1*
X22694D2*
X23283D1*
X4276Y5995D2*
X5326D1*
X6917D2*
X7612D1*
X9728D2*
X11479D1*
X12613D2*
X12896D1*
X18456D2*
X19225D1*
X22694D2*
X23283D1*
X4276Y5867D2*
X4451D1*
X6860D2*
X7595D1*
X8616D2*
X11479D1*
X12613D2*
X12896D1*
X18456D2*
X19353D1*
X23108D2*
X23283D1*
X6771Y5738D2*
X7595D1*
X11001D2*
X11479D1*
X12613D2*
X12896D1*
X6635Y5610D2*
X7595D1*
X11001D2*
X11479D1*
X12613D2*
X12896D1*
X6387Y5481D2*
X7595D1*
X11001D2*
X11479D1*
X12613D2*
X12896D1*
X5892Y5352D2*
X7595D1*
X11001D2*
X11479D1*
X12613D2*
X12896D1*
X5940Y5224D2*
X7595D1*
X11001D2*
X11479D1*
X12613D2*
X12896D1*
X19751D2*
X20386D1*
X5971Y5095D2*
X7597D1*
X11001D2*
X11479D1*
X12613D2*
X12896D1*
X19751D2*
X20386D1*
X5983Y4967D2*
X7644D1*
X11001D2*
X11479D1*
X12613D2*
X12896D1*
X5981Y4838D2*
X7766D1*
X11001D2*
X11479D1*
X12613D2*
X12896D1*
X5963Y4709D2*
X7896D1*
X11001D2*
X11479D1*
X12613D2*
X12896D1*
X5928Y4581D2*
X7898D1*
X11001D2*
X12896D1*
X5873Y4452D2*
X7898D1*
X11001D2*
X12896D1*
X5798Y4323D2*
X12896D1*
X16685Y9491D2*
X16686Y9297D1*
X16684Y8383D1*
X16686Y8164D1*
Y7642D1*
X17434D1*
Y7636D1*
X18093Y7637D1*
X18651D1*
X18696Y7673D1*
X18721Y7687D1*
X18732Y7751D1*
X18762Y7808D1*
X18809Y7853D1*
X18878Y7882D1*
X18986Y7887D1*
X21434Y7886D1*
X21477Y7890D1*
Y8129D1*
X21665Y8130D1*
X21603Y8196D1*
X21552Y8272D1*
X21513Y8354D1*
X21488Y8441D1*
X21478Y8531D1*
X21481Y8622D1*
X21499Y8711D1*
X21530Y8797D1*
X21575Y8876D1*
X21631Y8947D1*
X21699Y9008D1*
X21769Y9055D1*
X21685Y9113D1*
X21637Y9157D1*
X21595Y9207D1*
X21559Y9260D1*
X21528Y9318D1*
X21505Y9378D1*
X21488Y9441D1*
X21479Y9506D1*
X21477Y9570D1*
X21484Y9641D1*
X21236Y9889D1*
X21196Y9940D1*
X21170Y9999D1*
X21159Y10075D1*
X21157Y11257D1*
X21040D1*
X21039Y11306D1*
X20420D1*
Y11399D1*
X20339Y11474D1*
X20188Y11625D1*
X20146Y11680D1*
X19628Y11678D1*
X19472Y11524D1*
Y10940D1*
X19294D1*
X19295Y10233D1*
X17792Y10235D1*
X17819Y10233D1*
X16684D1*
Y9493D1*
X18443Y5894D2*
Y5822D1*
X18990Y5820D1*
X19001Y5822D1*
X19405D1*
X19392Y5841D1*
X19233Y6001D1*
X19192Y6054D1*
X18826Y6052D1*
X18666Y6049D1*
X18445D1*
X18443Y5849D1*
X14308Y11262D2*
Y11841D1*
X13988D1*
X13625Y11478D1*
X13624Y11260D1*
X14136Y11262D1*
X14308D1*
X14310Y11322D1*
X14308Y12371D2*
Y13022D1*
X13257D1*
X12936Y12702D1*
Y10625D1*
X12928Y10560D1*
X12905Y10500D1*
X12859Y10437D1*
X12451Y10029D1*
X12377Y9977D1*
X12365Y9938D1*
X12366Y9692D1*
X12420Y9727D1*
X12480Y9753D1*
X12543Y9769D1*
X12607Y9775D1*
X12672Y9770D1*
X12735Y9754D1*
X12795Y9729D1*
X12850Y9694D1*
X12898Y9651D1*
X12939Y9600D1*
X12971Y9544D1*
X12994Y9483D1*
X13006Y9420D1*
X13009Y9375D1*
X13004Y9310D1*
X12988Y9247D1*
X12962Y9187D1*
X12927Y9133D1*
X12873Y9075D1*
X12874Y8763D1*
X13094D1*
Y11587D1*
X13102Y11651D1*
X13125Y11712D1*
X13171Y11775D1*
X13691Y12294D1*
X13742Y12334D1*
X13801Y12360D1*
X13878Y12371D1*
X14306D1*
X14310Y12503D1*
X9732Y11421D2*
X10259Y11419D1*
X10303Y11421D1*
X10725D1*
Y11689D1*
X10398Y12015D1*
X9938Y12014D1*
X9733D1*
X9734Y11984D1*
X8920D1*
Y12640D1*
X9734D1*
Y12610D1*
X10523Y12611D1*
X10587Y12603D1*
X10648Y12583D1*
X10713Y12542D1*
X11193Y12064D1*
X11235Y12022D1*
X11275Y11972D1*
X11304Y11913D1*
X11321Y11839D1*
X11322Y11161D1*
Y10728D1*
X11315Y10664D1*
X11294Y10602D1*
X11254Y10538D1*
X11124Y10407D1*
X11125Y9687D1*
Y7957D1*
X11255Y7956D1*
X11257Y8192D1*
Y9216D1*
Y9728D1*
Y10239D1*
Y10495D1*
X12168Y10496D1*
X12407Y10736D1*
X12406Y11404D1*
Y12812D1*
X12414Y12876D1*
X12437Y12937D1*
X12484Y12999D1*
X12939Y13454D1*
X5737Y13455D1*
X5792Y13383D1*
X5858Y13272D1*
X5909Y13152D1*
X5946Y13028D1*
X5967Y12900D1*
X5972Y12795D1*
X5964Y12666D1*
X5940Y12538D1*
X5900Y12414D1*
X5846Y12297D1*
X5790Y12205D1*
X5866Y12234D1*
X5966Y12260D1*
X6069Y12273D1*
X6173D1*
X6276Y12260D1*
X6377Y12235D1*
X6474Y12197D1*
X6565Y12147D1*
X6649Y12086D1*
X6725Y12015D1*
X6792Y11935D1*
X6848Y11848D1*
X6892Y11754D1*
X6925Y11656D1*
X6945Y11554D1*
X6952Y11450D1*
X7112Y11612D1*
X7648Y12148D1*
X7698Y12189D1*
X7756Y12217D1*
X7830Y12234D1*
X8015Y12236D1*
X8014Y12266D1*
X8828D1*
Y11610D1*
X8014D1*
Y11640D1*
X7978Y11634D1*
X7483Y11139D1*
X7484Y10750D1*
X7700Y10751D1*
Y10217D1*
X7888Y10404D1*
X7939Y10444D1*
X7999Y10470D1*
X8076Y10482D1*
X8423D1*
X8422Y10495D1*
X9531D1*
Y9969D1*
X9577Y9972D1*
Y10628D1*
X9426Y10627D1*
Y11238D1*
X9370Y11236D1*
X8920D1*
Y11892D1*
X9734D1*
Y11421D1*
X10259Y10627D2*
X10107D1*
X10108Y9843D1*
X10100Y9778D1*
X10076Y9718D1*
X10030Y9655D1*
X9892Y9517D1*
X9841Y9477D1*
X9782Y9451D1*
X9705Y9440D1*
X9532D1*
X9531Y9273D1*
Y9235D1*
X10529Y9236D1*
X10528Y10431D1*
Y10531D1*
X10539Y10609D1*
Y10627D1*
X10110D1*
X7871Y7792D2*
Y8326D1*
X7824Y8277D1*
X7773Y8237D1*
X7713Y8211D1*
X7626Y8200D1*
X7560Y8111D1*
X7512Y8067D1*
X7459Y8029D1*
X7402Y7998D1*
X7336Y7973D1*
X7413Y7942D1*
X7480Y7902D1*
X7540Y7853D1*
X7593Y7795D1*
X7635Y7730D1*
X7668Y7659D1*
X7689Y7585D1*
X7699Y7507D1*
X7697Y7428D1*
X7684Y7352D1*
X7659Y7278D1*
X7623Y7209D1*
X7577Y7146D1*
X7522Y7091D1*
X7459Y7044D1*
X7391Y7008D1*
X7317Y6982D1*
X7240Y6968D1*
X7163Y6966D1*
X7085Y6975D1*
X7010Y6996D1*
X6939Y7028D1*
X6874Y7070D1*
X6815Y7122D1*
X6766Y7181D1*
X6725Y7248D1*
X6696Y7320D1*
X6677Y7396D1*
X6670Y7473D1*
X6675Y7551D1*
X6691Y7627D1*
X6719Y7700D1*
X6758Y7768D1*
X6806Y7829D1*
X6863Y7882D1*
X6927Y7926D1*
X6997Y7960D1*
X7033Y7973D1*
X6962Y8000D1*
X6906Y8032D1*
X6853Y8070D1*
X6806Y8115D1*
X6766Y8166D1*
X6731Y8221D1*
X6704Y8280D1*
X6685Y8342D1*
X6673Y8406D1*
X6670Y8471D1*
X6675Y8535D1*
X6688Y8599D1*
X6709Y8660D1*
X6737Y8719D1*
X6773Y8773D1*
X6815Y8822D1*
X6852Y8857D1*
X6766Y8953D1*
X6731Y9008D1*
X6704Y9067D1*
X6685Y9129D1*
X6673Y9193D1*
X6670Y9258D1*
X6675Y9323D1*
X6688Y9386D1*
X6709Y9448D1*
X6737Y9506D1*
X6773Y9560D1*
X6815Y9610D1*
X6863Y9654D1*
X6916Y9691D1*
X6971Y9720D1*
X6670Y9721D1*
Y10751D1*
X6887D1*
Y11123D1*
X6850Y11046D1*
X6795Y10958D1*
X6729Y10878D1*
X6653Y10807D1*
X6569Y10746D1*
X6478Y10695D1*
X6382Y10657D1*
X6282Y10630D1*
X6179Y10617D1*
X6075Y10616D1*
X5972Y10629D1*
X5871Y10654D1*
X5774Y10691D1*
X5683Y10741D1*
X5598Y10801D1*
X5522Y10872D1*
X5455Y10951D1*
X5398Y11038D1*
X5353Y11132D1*
X5320Y11230D1*
X5300Y11332D1*
X5292Y11436D1*
X5297Y11540D1*
X5316Y11642D1*
X5347Y11741D1*
X5390Y11835D1*
X5405Y11863D1*
X5326Y11826D1*
X5204Y11783D1*
X5077Y11756D1*
X4947Y11745D1*
X4818Y11750D1*
X4689Y11771D1*
X4565Y11807D1*
X4446Y11859D1*
X4334Y11924D1*
X4261Y11979D1*
X4262Y10764D1*
Y5740D1*
X4355Y5806D1*
X4468Y5869D1*
X4589Y5918D1*
X4714Y5951D1*
X4843Y5969D1*
X4973Y5971D1*
X5102Y5956D1*
X5228Y5926D1*
X5350Y5880D1*
X5405Y5854D1*
X5358Y5947D1*
X5324Y6045D1*
X5302Y6146D1*
X5292Y6250D1*
X5296Y6353D1*
X5313Y6456D1*
X5342Y6556D1*
X5384Y6651D1*
X5437Y6740D1*
X5501Y6822D1*
X5574Y6895D1*
X5656Y6959D1*
X5746Y7012D1*
X5841Y7053D1*
X5941Y7082D1*
X6044Y7098D1*
X6147Y7101D1*
X6251Y7092D1*
X6352Y7069D1*
X6450Y7034D1*
X6543Y6987D1*
X6629Y6929D1*
X6707Y6861D1*
X6776Y6783D1*
X6835Y6697D1*
X6882Y6605D1*
X6918Y6507D1*
X6941Y6406D1*
X6951Y6303D1*
X6948Y6194D1*
X6932Y6091D1*
X6903Y5991D1*
X6862Y5896D1*
X6809Y5807D1*
X6746Y5724D1*
X6673Y5651D1*
X6591Y5587D1*
X6502Y5534D1*
X6407Y5492D1*
X6307Y5463D1*
X6204Y5446D1*
X6101Y5442D1*
X5997Y5451D1*
X5896Y5473D1*
X5798Y5508D1*
X5792Y5509D1*
X5858Y5398D1*
X5909Y5278D1*
X5946Y5154D1*
X5967Y5026D1*
X5972Y4921D1*
X5964Y4792D1*
X5940Y4664D1*
X5900Y4540D1*
X5846Y4423D1*
X5777Y4312D1*
X5739Y4262D1*
X12910D1*
X12909Y5031D1*
Y6203D1*
X12601Y6201D1*
Y5734D1*
X11492D1*
Y6199D1*
X11296Y6201D1*
X11232Y6208D1*
X11170Y6229D1*
X11106Y6269D1*
X10626Y6748D1*
X10575Y6808D1*
X10546Y6867D1*
X10530Y6941D1*
X10528Y7619D1*
Y8638D1*
X9745Y8639D1*
X9866Y8521D1*
X10128Y8258D1*
X10168Y8207D1*
X10195Y8148D1*
X10206Y8071D1*
Y6594D1*
X10198Y6530D1*
X10175Y6470D1*
X10128Y6407D1*
X9735Y6013D1*
X9684Y5974D1*
X9624Y5947D1*
X9547Y5936D1*
X8672D1*
X8591Y5854D1*
X8592Y5808D1*
X8743Y5810D1*
X9413D1*
Y5678D1*
X9485D1*
Y5810D1*
X10318Y5808D1*
X10362Y5810D1*
X10987D1*
Y4327D1*
X9485D1*
Y4459D1*
X9412D1*
X9413Y4327D1*
X8579Y4330D1*
X8289Y4327D1*
X7910D1*
Y4707D1*
X7687Y4931D1*
X7647Y4982D1*
X7620Y5041D1*
X7609Y5118D1*
Y5906D1*
X7617Y5970D1*
X7640Y6030D1*
X7687Y6093D1*
X8277Y6683D1*
X8328Y6723D1*
X8412Y6756D1*
X8422Y6806D1*
Y7123D1*
X7871D1*
Y7956D1*
X11505Y5662D2*
X12601D1*
Y4632D1*
X11492D1*
Y5662D1*
X11505D1*
X17758Y9073D2*
X18972D1*
Y8122D1*
X17745D1*
Y9073D1*
X17758D1*
X22562Y6854D2*
X22680D1*
Y5971D1*
X22818Y5956D1*
X22945Y5926D1*
X23066Y5880D1*
X23181Y5820D1*
X23299Y5737D1*
X23297Y6237D1*
Y11976D1*
X23215Y11917D1*
X23102Y11853D1*
X22982Y11803D1*
X22857Y11768D1*
X22729Y11749D1*
X22599Y11745D1*
X22470Y11758D1*
X22343Y11787D1*
X22221Y11831D1*
X22105Y11890D1*
X21998Y11962D1*
X21934Y12016D1*
Y11669D1*
X22355Y11250D1*
X22395Y11199D1*
X22421Y11137D1*
X22439Y11109D1*
X22500Y11088D1*
X22559Y11061D1*
X22614Y11027D1*
X22666Y10987D1*
X22712Y10942D1*
X22753Y10891D1*
X22788Y10837D1*
X22816Y10778D1*
X22838Y10717D1*
X22853Y10654D1*
X22861Y10555D1*
X22858Y10490D1*
X22847Y10426D1*
X22829Y10364D1*
X22804Y10304D1*
X22772Y10247D1*
X22734Y10195D1*
X22691Y10146D1*
X22642Y10104D1*
X22569Y10056D1*
X22666Y9987D1*
X22712Y9942D1*
X22753Y9891D1*
X22788Y9837D1*
X22816Y9778D1*
X22838Y9717D1*
X22853Y9654D1*
X22861Y9555D1*
X22858Y9490D1*
X22847Y9426D1*
X22829Y9364D1*
X22804Y9304D1*
X22772Y9247D1*
X22734Y9195D1*
X22691Y9146D1*
X22642Y9104D1*
X22569Y9056D1*
X22646Y9004D1*
X22712Y8942D1*
X22768Y8870D1*
X22811Y8790D1*
X22842Y8705D1*
X22858Y8615D1*
X22861Y8529D1*
X22850Y8439D1*
X22824Y8352D1*
X22785Y8270D1*
X22734Y8195D1*
X22672Y8129D1*
X22861D1*
Y6981D1*
X22563D1*
X22562Y6855D1*
X19768Y5084D2*
X20400D1*
X20399Y5311D1*
X19739D1*
X19738Y5085D1*
X19768Y5084D1*
X14308Y11516D2*
X14724D1*
X14308Y12697D2*
X14724D1*
X10512Y11420D2*
Y10627D1*
X18878Y10630D2*
Y10233D1*
Y10630D2*
X19294D1*
X8268Y7539D2*
Y7123D1*
X7871Y7539D2*
X8268D1*
X12992Y8763D2*
Y8346D1*
X12046Y5662D2*
Y4632D1*
X11492Y5147D2*
X12600D1*
X18359Y9073D2*
Y8122D1*
X17746Y8597D2*
X18972D1*
X21477Y8555D2*
X22861D1*
X7185Y7480D2*
Y6966D1*
X6670Y7480D2*
X7700D1*
X6122Y12275D2*
Y10615D1*
X5292Y11445D2*
X6952D1*
X6122Y7101D2*
Y5442D1*
X5292Y6272D2*
X6952D1*
X20171Y5084D2*
Y4687D1*
X10571Y5810D2*
Y5413D1*
X10987D1*
X10571Y4724D2*
Y4328D1*
Y4724D2*
X10987D1*
X19921Y12008D2*
Y11680D1*
X9327Y11892D2*
Y11236D1*
X8920Y11564D2*
X9733D1*
X18878Y11258D2*
X19471D1*
X11257Y8425D2*
X11811D1*
X8976Y9449D2*
X9531D1*
X19046Y5822D2*
Y5406D1*
D19*
X16171Y8937D3*
X17274D3*
X16171Y8000D3*
X17274D3*
D20*
X19546Y7312D3*
Y8414D3*
D21*
X18046Y5477D3*
Y6147D3*
D22*
X15394Y11516D3*
X14724D3*
X15394Y12697D3*
X14724D3*
Y10925D3*
X15394D3*
X9843Y11024D3*
X10512D3*
X18878Y10630D3*
X18209D3*
D21*
X8268Y8209D3*
Y7539D3*
X12992Y7677D3*
Y8346D3*
D20*
X12046Y6250D3*
Y5147D3*
D24*
X18359Y7062D3*
Y8597D3*
D20*
X20421Y7312D3*
Y8414D3*
D26*
X17466Y5455D3*
X16127D3*
D21*
X21296Y5397D3*
Y4727D3*
D22*
X8996Y5413D3*
X8327D3*
X8996Y4724D3*
X8327D3*
D19*
X21063Y6299D3*
X22165D3*
D27*
X22169Y7555D3*
D28*
Y8555D3*
Y9555D3*
Y10555D3*
D29*
X7185Y10236D3*
D30*
Y9252D3*
Y8465D3*
Y7480D3*
D31*
X6122Y11445D3*
Y6272D3*
D32*
X16171Y6812D3*
X17037D3*
D22*
X18796Y4687D3*
X18127D3*
X20171D3*
X19502D3*
D21*
X20046Y5727D3*
Y6397D3*
X20796Y4727D3*
Y5397D3*
D22*
X10571Y5413D3*
X9902D3*
X10571Y4724D3*
X9902D3*
X14724Y12106D3*
X15394D3*
X14724Y13287D3*
X15394D3*
X14724Y10335D3*
X15394D3*
D34*
X20827Y11634D3*
Y12382D3*
X19921Y12008D3*
D36*
X21358Y12441D3*
Y11575D3*
D34*
X9327Y11564D3*
Y12312D3*
X8421Y11938D3*
D37*
X16752Y12758D3*
Y12258D3*
Y11758D3*
Y11258D3*
X18878D3*
Y11758D3*
Y12258D3*
Y12758D3*
D38*
X11811Y6890D3*
Y7146D3*
Y7402D3*
Y7657D3*
Y7913D3*
Y8169D3*
Y8425D3*
Y8681D3*
Y8937D3*
Y9193D3*
Y9449D3*
Y9705D3*
Y9961D3*
Y10217D3*
X8976D3*
Y9961D3*
Y9705D3*
Y9449D3*
Y9193D3*
Y8937D3*
Y8681D3*
Y8425D3*
Y8169D3*
Y7913D3*
Y7657D3*
Y7402D3*
Y7146D3*
Y6890D3*
D39*
X18672Y5406D3*
X19046D3*
X19420D3*
Y6469D3*
X19046D3*
X18672D3*
M02*
