M48
INCH
T01C0.0191
T02C0.0433
T03C0.0512
T04C0.0984
%
T01
X+010609Y+007375
X+009921Y+006500
X+008984Y+007125
X+007776Y+007776
X+007382Y+007382
X+006693Y+008366
X+007484Y+009437
X+006487Y+009804
X+006299Y+010827
X+005610Y+011516
X+004799Y+009991
X+004626Y+006988
X+007234Y+004437
X+008268Y+010827
X+009843Y+011614
X+009296Y+013187
X+011546Y+012062
X+011671Y+010687
X+011109Y+010312
X+014075Y+011614
X+013976Y+012795
X+014665Y+009744
X+017796Y+009812
X+017921Y+009187
X+018671Y+009187
X+019671Y+009187
X+020421Y+009187
X+021234Y+009187
X+019046Y+005937
X+020171Y+005187
T02
X+009296Y+004750
X+009296Y+005750
X+010296Y+005750
X+011296Y+005750
X+012296Y+005750
X+012296Y+004750
X+011296Y+004750
X+010296Y+004750
X+013296Y+004750
X+013296Y+005750
T03
X+022169Y+007555
X+022169Y+008555
X+022169Y+009555
X+022169Y+010555
T04
X+004921Y+012795
X+004921Y+004921
X+022638Y+004921
X+022638Y+012795
T00
M30
