G04 DipTrace 2.4.0.2*
%INTop.gbr*%
%MOIN*%
%ADD14C,0.0118*%
%ADD15C,0.013*%
%ADD16C,0.0197*%
%ADD17C,0.0125*%
%ADD18C,0.0394*%
%ADD20R,0.063X0.0709*%
%ADD21R,0.0709X0.063*%
%ADD22R,0.0394X0.0433*%
%ADD23R,0.0433X0.0394*%
%ADD25R,0.0827X0.0551*%
%ADD27R,0.0315X0.063*%
%ADD28R,0.0984X0.0748*%
%ADD29O,0.0984X0.0748*%
%ADD30R,0.0669X0.0669*%
%ADD31C,0.0669*%
%ADD32R,0.0394X0.126*%
%ADD34R,0.0413X0.0256*%
%ADD36R,0.0236X0.0236*%
%ADD38O,0.0335X0.0118*%
%ADD39O,0.0118X0.0335*%
%ADD40R,0.0965X0.0965*%
%ADD41R,0.0787X0.0236*%
%ADD43R,0.0236X0.0433*%
%ADD44R,0.0591X0.0197*%
%ADD45C,0.04*%
%FSLAX44Y44*%
G04*
G70*
G90*
G75*
G01*
%LNTop*%
%LPD*%
X5846Y8110D2*
D14*
Y7878D1*
D15*
Y7762D1*
X6109Y7500D1*
X6791D1*
X7382D1*
Y7382D1*
X11671Y10687D2*
Y11396D1*
X11673Y11398D1*
X6791Y6535D2*
Y7500D1*
X6043Y8110D2*
D14*
Y7940D1*
D15*
X6171Y7812D1*
X7221D1*
X7283Y7874D1*
X7776D1*
Y7776D1*
X11109Y10312D2*
X11921D1*
X12109Y10500D1*
Y10875D1*
X11988Y10995D1*
Y11398D1*
X7776Y7776D2*
Y7185D1*
X7480Y6890D1*
Y6535D1*
X20171Y4687D2*
Y5187D1*
X19046Y5937D2*
Y5406D1*
X20796Y4727D2*
X20756Y4687D1*
X20171D1*
X19921Y12008D2*
X19882D1*
Y8750D1*
X19546Y8414D1*
X18878Y11258D2*
X19882D1*
Y12008D1*
X8366Y5965D2*
X9081D1*
X9296Y5750D1*
X5650Y9606D2*
D14*
Y9839D1*
D15*
Y10007D1*
X6009Y10366D1*
X6262D1*
X6527D1*
X4799Y11076D2*
X5170D1*
X5610Y11516D1*
X6262Y10366D2*
X6299Y10827D1*
X18878Y10630D2*
Y11258D1*
X9862Y10217D2*
X9311D1*
X8760Y10768D1*
X9862Y9587D2*
X8486D1*
X8359Y9459D1*
X4626Y7480D2*
X4803Y7657D1*
Y8242D1*
D14*
Y8366D1*
X6299D2*
X6531D1*
D15*
X6693D1*
X13169Y9902D2*
X14011D1*
X14046Y9937D1*
X4626Y7480D2*
Y6988D1*
X18878Y10630D2*
Y9083D1*
X19546Y8414D1*
X8760Y10768D2*
X8327D1*
X8268Y10827D1*
X8359Y9459D2*
X7506D1*
X7484Y9437D1*
X14724Y12697D2*
X14075D1*
X13976Y12795D1*
X14046Y9937D2*
X14472D1*
X14665Y9744D1*
X14724Y11516D2*
X14173D1*
X14075Y11614D1*
X14724Y11516D2*
X14803D1*
X15394Y10925D1*
X5256Y9606D2*
D14*
Y9374D1*
D15*
Y9154D1*
X5551Y8858D1*
X5650Y9606D2*
D14*
Y9374D1*
D15*
Y8957D1*
X5551Y8858D1*
X9046Y8159D2*
X8546D1*
Y7562D1*
X8984Y7125D1*
X18127Y4687D2*
Y4312D1*
X16171D1*
Y5411D1*
X16127Y5455D1*
Y6768D1*
X16171Y6812D1*
X18127Y4312D2*
X21171D1*
X21296Y4437D1*
Y4727D1*
X9296Y4750D2*
X9127Y4580D1*
D16*
X8234D1*
X7196Y10366D2*
D15*
X7049D1*
Y10054D1*
X6799Y9804D1*
X6487D1*
Y9929D1*
X5924D1*
D14*
X5846Y9851D1*
Y9606D1*
X4799Y10406D2*
D15*
X4803Y10403D1*
Y9474D1*
D14*
Y9350D1*
X4799Y10406D2*
D15*
Y10429D1*
X5112Y10741D1*
X5487D1*
X5924Y11179D1*
X6549D1*
X7049Y10679D1*
Y10366D1*
X4799Y9991D2*
Y10406D1*
X18209Y10630D2*
Y12500D1*
X18467Y12758D1*
X18878D1*
X9862Y9902D2*
X8957D1*
X8760Y10098D1*
X9862Y9272D2*
X8881D1*
X8399Y8790D1*
X8359D1*
X13169Y9587D2*
D16*
X13584D1*
X13903Y9268D1*
X14046D1*
X6791Y5866D2*
D15*
X7480D1*
Y5118D1*
X7972Y4626D1*
X8188D1*
X8234Y4580D1*
X13169Y8957D2*
D16*
X13628D1*
X13796Y9125D1*
Y9268D1*
X14046D1*
X14466D1*
X15734Y8000D1*
X16171D1*
X18209Y10630D2*
D15*
Y10531D1*
X16535D1*
X16240Y10236D1*
Y9006D1*
X16171Y8937D1*
X9862Y9902D2*
D16*
X10472D1*
X10630Y9744D1*
Y9561D1*
Y9449D1*
X10453Y9272D1*
X9862D1*
X10630Y9561D2*
X10656Y9587D1*
X13169D1*
X8760Y10098D2*
D15*
X7464D1*
X7196Y10366D1*
X7480Y5866D2*
X7736D1*
X7874Y6004D1*
Y6827D1*
X8234Y7187D1*
Y8500D1*
X8359Y8625D1*
Y8790D1*
X15394Y10335D2*
X15650D1*
X15846Y10531D1*
Y11713D1*
X16142Y12008D1*
Y12598D1*
X16301Y12758D1*
X16752D1*
X14724Y12106D2*
X13386D1*
X12805Y12687D1*
X11171D1*
X10728Y12244D1*
Y11398D1*
X16752Y11758D2*
D17*
Y12258D1*
X15394Y13287D2*
Y12697D1*
Y13287D2*
D15*
Y13386D1*
X17323D1*
X17618Y13091D1*
Y11024D1*
X17421Y10827D1*
X16339D1*
X16142Y11024D1*
Y11516D1*
X16384Y11758D1*
X16752D1*
X22169Y9555D2*
D17*
X21941D1*
X21421Y10075D1*
Y11375D1*
X21358Y11437D1*
Y11575D1*
X20827D1*
Y11634D1*
X18878Y11758D2*
X19337D1*
X19488Y11909D1*
Y12205D1*
X19685Y12402D1*
X20177D1*
X20374Y12205D1*
Y11811D1*
X20571Y11614D1*
X20807D1*
X20827Y11634D1*
X21358Y12441D2*
X21417D1*
X21671Y12187D1*
Y11562D1*
X22169Y11064D1*
Y10555D1*
X21358Y12441D2*
X20827D1*
Y12382D1*
X20591D1*
X20276Y12697D1*
X19619D1*
X19180Y12258D1*
X18878D1*
X19420Y5406D2*
D15*
Y4769D1*
X19502Y4687D1*
X18796D2*
X19502D1*
X5340Y10366D2*
X5453Y10253D1*
Y9839D1*
D14*
Y9606D1*
X5256Y8110D2*
Y7878D1*
D15*
Y7520D1*
X5295Y7480D1*
X20046Y5727D2*
X19756D1*
X19671Y5812D1*
Y5937D1*
X19420Y6188D1*
Y6469D1*
X17466Y5455D2*
X18024D1*
X18046Y5477D1*
X18318D1*
X18390Y5406D1*
X18672D1*
X20796Y5397D2*
X21296D1*
X22169Y7555D2*
D18*
X22165Y7551D1*
Y6299D1*
X8234Y5250D2*
D15*
X9796D1*
X10296Y4750D1*
X11546Y12062D2*
X11358Y11874D1*
Y11398D1*
X13169Y8642D2*
X12984D1*
Y6437D1*
X13296Y6125D1*
Y5750D1*
Y4750D2*
X12796Y5250D1*
Y6062D1*
X12609Y6250D1*
Y8081D1*
X12618Y8091D1*
X12296Y5750D2*
Y8091D1*
X12303D1*
X11988D2*
Y6136D1*
X11819Y5967D1*
Y5227D1*
X12296Y4750D1*
X11673Y8091D2*
X11671Y8089D1*
Y6194D1*
X11296Y5819D1*
Y5750D1*
X11358Y8091D2*
X11319Y8051D1*
Y6342D1*
X11131D1*
X10819Y6029D1*
Y5227D1*
X11296Y4750D1*
X9862Y8957D2*
X9253D1*
X9046Y8750D1*
Y8632D1*
X9941Y7283D2*
X9955D1*
X9359Y6687D1*
X8366D1*
Y6634D1*
X10413Y8091D2*
X10079D1*
X9941Y7953D1*
X15394Y12106D2*
D17*
Y11516D1*
Y12106D2*
D15*
X15650D1*
X15846Y12303D1*
Y12795D1*
X16142Y13091D1*
X17224D1*
X17323Y12992D1*
Y11258D1*
X16752D1*
X9862Y10531D2*
X9350D1*
X9171Y10711D1*
Y12062D1*
X10397Y13287D1*
X14724D1*
Y10335D2*
Y10925D1*
X14173D1*
X12661Y12437D1*
X11359D1*
X11043Y12122D1*
Y11398D1*
X9046Y7687D2*
X9421D1*
X9546Y7812D1*
Y8500D1*
X9671Y8625D1*
X9859D1*
Y8638D1*
X9862Y8642D1*
D45*
X7382Y7382D3*
X11671Y10687D3*
X7776Y7776D3*
X11109Y10312D3*
X20171Y5187D3*
X19046Y5937D3*
X5610Y11516D3*
X6299Y10827D3*
X6693Y8366D3*
X4626Y6988D3*
X8268Y10827D3*
X7484Y9437D3*
X13976Y12795D3*
X14665Y9744D3*
X14075Y11614D3*
X8984Y7125D3*
X4799Y9991D3*
X6487Y9804D3*
X11546Y12062D3*
X10609Y7375D3*
X9921Y6500D3*
X7234Y4437D3*
X9296Y13187D3*
X21234Y9187D3*
X9843Y11614D3*
X18671Y9187D3*
X17921D3*
X17796Y9812D3*
X19671Y9187D3*
X20421D3*
X18999Y7493D2*
D15*
X21343D1*
X18999Y7365D2*
X21343D1*
X18999Y7236D2*
X21343D1*
X18999Y7108D2*
X21343D1*
X18999Y6979D2*
X21343D1*
X19004Y6850D2*
X19089D1*
X19999D2*
X20093D1*
X20561D2*
X21343D1*
X19004Y6722D2*
X19089D1*
X19999D2*
X20093D1*
X20561D2*
X21343D1*
X19004Y6593D2*
X19089D1*
X19999D2*
X20093D1*
X20561D2*
X21343D1*
X19004Y6465D2*
X19089D1*
X19999D2*
X20093D1*
X20561D2*
X21343D1*
X20561Y6336D2*
X21343D1*
X20561Y6207D2*
X21343D1*
X20561Y6079D2*
X21343D1*
X19102Y6379D2*
Y6885D1*
X19108D1*
X19112Y6902D1*
X19162Y6939D1*
X19921D1*
X19976Y6908D1*
X19986Y6875D1*
Y6377D1*
X20106D1*
Y6875D1*
X20138Y6929D1*
X20171Y6939D1*
X20484D1*
X20539Y6908D1*
X20549Y6875D1*
Y6002D1*
X21356D1*
Y7622D1*
X18986D1*
Y6885D1*
X18990D1*
Y6376D1*
X19102Y6377D1*
X16937Y7306D2*
X18718D1*
X16937Y7177D2*
X18718D1*
X16937Y7049D2*
X18718D1*
X16937Y6920D2*
X18718D1*
X16937Y6791D2*
X18714D1*
X16937Y6663D2*
X18714D1*
X16937Y6534D2*
X18714D1*
X16937Y6406D2*
X18714D1*
X16937Y6277D2*
X18156D1*
X18728Y6314D2*
X18731Y6894D1*
Y7372D1*
X16924D1*
Y6252D1*
X18168D1*
X18175Y6277D1*
X18225Y6314D1*
X18727D1*
X13718Y10931D2*
X13779D1*
X13718Y10802D2*
X13909D1*
X13711Y10674D2*
X14077D1*
X13718Y10545D2*
X14295D1*
X16125D2*
X16406D1*
X13716Y10416D2*
X14295D1*
X16099D2*
X16406D1*
X15991Y10288D2*
X16406D1*
X15861Y10159D2*
X16406D1*
X15823Y10031D2*
X16406D1*
X15045Y9902D2*
X16406D1*
X15078Y9773D2*
X16406D1*
X15065Y9645D2*
X16406D1*
X15007Y9516D2*
X16406D1*
X14860Y9388D2*
X16406D1*
X14456Y9259D2*
X16406D1*
X14456Y9130D2*
X16406D1*
X14450Y9002D2*
X16406D1*
X13667Y8873D2*
X13744D1*
X14347D2*
X16406D1*
X13718Y8745D2*
X16406D1*
X13718Y8616D2*
X16406D1*
X13709Y8487D2*
X16406D1*
X13594Y8359D2*
X16406D1*
X13261Y8230D2*
X16406D1*
X13261Y8102D2*
X16406D1*
X13261Y7973D2*
X16406D1*
X13261Y7844D2*
X16406D1*
X13261Y7716D2*
X16406D1*
X13261Y7587D2*
X16280D1*
X13261Y7458D2*
X16280D1*
X13261Y7330D2*
X16280D1*
X13261Y7201D2*
X16280D1*
X13261Y7073D2*
X16280D1*
X13261Y6944D2*
X16280D1*
X13261Y6815D2*
X16280D1*
X13261Y6687D2*
X16280D1*
X13261Y6558D2*
X16280D1*
X13379Y6430D2*
X16280D1*
X13506Y6301D2*
X16280D1*
X13636Y6172D2*
X16280D1*
X13756Y6044D2*
X16280D1*
X13817Y5915D2*
X16280D1*
X13843Y5787D2*
X16280D1*
X13835Y5658D2*
X16280D1*
X13797Y5529D2*
X16280D1*
X13714Y5401D2*
X16280D1*
X13549Y5272D2*
X16280D1*
X13671Y5144D2*
X16280D1*
X13772Y5015D2*
X16280D1*
X13825Y4886D2*
X16280D1*
X13843Y4758D2*
X16280D1*
X13829Y4629D2*
X16280D1*
X13783Y4500D2*
X16280D1*
X13687Y4372D2*
X16280D1*
X14309Y10528D2*
X14308Y10658D1*
X14173Y10660D1*
X14109Y10668D1*
X14048Y10691D1*
X13986Y10738D1*
X13675Y11048D1*
X13699Y10988D1*
X13704Y10880D1*
X13703Y10736D1*
X13697Y10682D1*
X13704Y10630D1*
X13703Y10421D1*
X13697Y10367D1*
X13704Y10315D1*
Y10293D1*
X13737Y10319D1*
X13806Y10349D1*
X13914Y10354D1*
X14243D1*
X14309Y10342D1*
X14308Y10652D1*
X14230Y8851D2*
X13824Y8853D1*
X13773Y8866D1*
X13728Y8892D1*
X13692Y8928D1*
X13665Y8973D1*
X13651Y9023D1*
X13650Y9037D1*
X13616Y9008D1*
X13548Y8978D1*
X13439Y8973D1*
X13173D1*
X13224Y8940D1*
X13504D1*
X13568Y8930D1*
X13625Y8900D1*
X13669Y8853D1*
X13699Y8784D1*
X13704Y8675D1*
Y8543D1*
X13694Y8479D1*
X13663Y8422D1*
X13616Y8378D1*
X13548Y8348D1*
X13439Y8343D1*
X13250D1*
X13249Y7732D1*
Y6545D1*
X13484Y6312D1*
X13535Y6239D1*
X13558Y6216D1*
X13613Y6181D1*
X13662Y6139D1*
X13707Y6092D1*
X13745Y6040D1*
X13777Y5983D1*
X13802Y5923D1*
X13819Y5860D1*
X13831Y5750D1*
X13827Y5685D1*
X13815Y5621D1*
X13796Y5559D1*
X13769Y5500D1*
X13735Y5444D1*
X13695Y5393D1*
X13649Y5348D1*
X13598Y5308D1*
X13542Y5275D1*
X13484Y5249D1*
X13558Y5216D1*
X13613Y5181D1*
X13662Y5139D1*
X13707Y5092D1*
X13745Y5040D1*
X13777Y4983D1*
X13802Y4923D1*
X13819Y4860D1*
X13831Y4750D1*
X13827Y4685D1*
X13815Y4621D1*
X13796Y4559D1*
X13769Y4500D1*
X13735Y4444D1*
X13695Y4393D1*
X13649Y4348D1*
X13598Y4308D1*
X13542Y4275D1*
X13492Y4252D1*
X16294D1*
Y7625D1*
X16326Y7679D1*
X16359Y7689D1*
X16419D1*
Y10562D1*
X16339D1*
X16274Y10570D1*
X16214Y10593D1*
X16151Y10639D1*
X16112Y10678D1*
X16111Y10531D1*
X16104Y10467D1*
X16080Y10407D1*
X16034Y10344D1*
X15817Y10129D1*
X15810Y10082D1*
Y9938D1*
X15016D1*
X15050Y9853D1*
X15063Y9789D1*
X15065Y9744D1*
X15060Y9679D1*
X15045Y9616D1*
X15019Y9557D1*
X14984Y9502D1*
X14941Y9454D1*
X14890Y9413D1*
X14834Y9381D1*
X14773Y9359D1*
X14709Y9346D1*
X14644Y9345D1*
X14580Y9353D1*
X14518Y9372D1*
X14442Y9414D1*
X14443Y9328D1*
X14442Y9025D1*
X14428Y8975D1*
X14402Y8930D1*
X14366Y8893D1*
X14321Y8867D1*
X14271Y8853D1*
X14230Y8851D1*
X14046Y9268D2*
Y8851D1*
Y9268D2*
X14443D1*
X17062Y9118D2*
X21385D1*
X17062Y8990D2*
X21513D1*
X17062Y8861D2*
X22593D1*
X17062Y8733D2*
X22593D1*
X17062Y8604D2*
X22593D1*
X17062Y8475D2*
X22593D1*
X17062Y8347D2*
X22593D1*
X17062Y8218D2*
X21342D1*
X17062Y8090D2*
X18718D1*
X17062Y7961D2*
X18718D1*
X17062Y7832D2*
X18718D1*
X17062Y7704D2*
X18718D1*
X17049Y9182D2*
Y7689D1*
X18731D1*
Y8062D1*
X18763Y8117D1*
X18796Y8127D1*
X21356D1*
Y8187D1*
X21388Y8242D1*
X21421Y8252D1*
X22606D1*
Y8872D1*
X21670Y8873D1*
X21625Y8891D1*
X21268Y9249D1*
X20647Y9247D1*
X17049D1*
Y9182D1*
X5841Y13326D2*
X10048D1*
X5904Y13198D2*
X9920D1*
X5949Y13069D2*
X9790D1*
X5975Y12940D2*
X9662D1*
X10437D2*
X11081D1*
X12895D2*
X14294D1*
X5985Y12812D2*
X9534D1*
X10309D2*
X10908D1*
X13068D2*
X14294D1*
X5979Y12683D2*
X9404D1*
X10179D2*
X10780D1*
X13196D2*
X14294D1*
X5957Y12554D2*
X9276D1*
X10051D2*
X10650D1*
X13326D2*
X14294D1*
X5918Y12426D2*
X9148D1*
X9923D2*
X10523D1*
X13454D2*
X14294D1*
X5859Y12297D2*
X9018D1*
X9793D2*
X10456D1*
X5778Y12169D2*
X8915D1*
X9666D2*
X10450D1*
X5664Y12040D2*
X8892D1*
X9538D2*
X10450D1*
X5502Y11911D2*
X8892D1*
X9448D2*
X10214D1*
X21947D2*
X22057D1*
X23218D2*
X23283D1*
X4276Y11783D2*
X4629D1*
X5214D2*
X8892D1*
X9448D2*
X10108D1*
X13703D2*
X14294D1*
X21947D2*
X22345D1*
X22930D2*
X23283D1*
X4276Y11654D2*
X8892D1*
X9448D2*
X10102D1*
X13831D2*
X14294D1*
X19617D2*
X20151D1*
X21963D2*
X23283D1*
X4276Y11526D2*
X8892D1*
X9448D2*
X10102D1*
X13961D2*
X14294D1*
X19485D2*
X20275D1*
X22091D2*
X23283D1*
X4276Y11397D2*
X4390D1*
X5210D2*
X5762D1*
X6712D2*
X8892D1*
X9448D2*
X10102D1*
X14089D2*
X14294D1*
X19485D2*
X20407D1*
X22221D2*
X23283D1*
X4276Y11268D2*
X4390D1*
X5210D2*
X5626D1*
X6848D2*
X8892D1*
X9448D2*
X10102D1*
X19485D2*
X21028D1*
X22349D2*
X23283D1*
X4276Y11140D2*
X4390D1*
X5210D2*
X5498D1*
X6976D2*
X8424D1*
X19485D2*
X21146D1*
X22434D2*
X23283D1*
X4276Y11011D2*
X4390D1*
X5210D2*
X5368D1*
X7104D2*
X8353D1*
X19485D2*
X21146D1*
X22650D2*
X23283D1*
X4276Y10883D2*
X4390D1*
X6016D2*
X6458D1*
X7234D2*
X8350D1*
X19308D2*
X21146D1*
X22771D2*
X23283D1*
X4276Y10754D2*
X4390D1*
X7625D2*
X8350D1*
X10411D2*
X11264D1*
X12386D2*
X12622D1*
X19308D2*
X21146D1*
X22838D2*
X23283D1*
X4276Y10625D2*
X4390D1*
X7625D2*
X8350D1*
X10411D2*
X10847D1*
X12386D2*
X12622D1*
X19308D2*
X21146D1*
X22871D2*
X23283D1*
X4276Y10497D2*
X4390D1*
X7625D2*
X8359D1*
X10411D2*
X10742D1*
X12386D2*
X12622D1*
X19308D2*
X21146D1*
X22871D2*
X23283D1*
X4276Y10368D2*
X4390D1*
X7625D2*
X8357D1*
X10402D2*
X10699D1*
X12351D2*
X12630D1*
X19308D2*
X21146D1*
X22842D2*
X23283D1*
X4276Y10240D2*
X4390D1*
X10411D2*
X10703D1*
X12236D2*
X12622D1*
X16698D2*
X17780D1*
X19308D2*
X21146D1*
X22779D2*
X23283D1*
X4276Y10111D2*
X4390D1*
X12108D2*
X12622D1*
X16698D2*
X21146D1*
X22664D2*
X23283D1*
X4276Y9982D2*
X4386D1*
X11348D2*
X12622D1*
X16698D2*
X21162D1*
X22684D2*
X23283D1*
X4276Y9854D2*
X4410D1*
X7238D2*
X7350D1*
X16698D2*
X21257D1*
X22790D2*
X23283D1*
X4276Y9725D2*
X4487D1*
X7108D2*
X7955D1*
X16698D2*
X21387D1*
X22848D2*
X23283D1*
X4276Y9596D2*
X4526D1*
X6978D2*
X7949D1*
X8768D2*
X9315D1*
X16698D2*
X21466D1*
X22873D2*
X23283D1*
X4276Y9468D2*
X4451D1*
X6718D2*
X7949D1*
X16700D2*
X21470D1*
X22867D2*
X23283D1*
X4276Y9339D2*
X4422D1*
X6679D2*
X7949D1*
X16700D2*
X21507D1*
X22832D2*
X23283D1*
X4276Y9211D2*
X4428D1*
X6673D2*
X7951D1*
X16700D2*
X21580D1*
X22759D2*
X23283D1*
X4276Y9082D2*
X4433D1*
X6669D2*
X7965D1*
X16700D2*
X21714D1*
X22625D2*
X23283D1*
X4276Y8953D2*
X4422D1*
X6679D2*
X7949D1*
X16700D2*
X17733D1*
X18985D2*
X21625D1*
X22714D2*
X23283D1*
X4276Y8825D2*
X4431D1*
X6671D2*
X7949D1*
X16700D2*
X17733D1*
X18985D2*
X21531D1*
X22808D2*
X23283D1*
X4276Y8696D2*
X4431D1*
X6671D2*
X7949D1*
X16700D2*
X17733D1*
X18985D2*
X21483D1*
X22857D2*
X23283D1*
X4276Y8568D2*
X4422D1*
X6679D2*
X7949D1*
X16700D2*
X17733D1*
X18985D2*
X21464D1*
X22875D2*
X23283D1*
X4276Y8439D2*
X4433D1*
X6669D2*
X7957D1*
X16700D2*
X17733D1*
X18985D2*
X21477D1*
X22863D2*
X23283D1*
X4276Y8310D2*
X4428D1*
X6673D2*
X7957D1*
X16700D2*
X17733D1*
X18985D2*
X21519D1*
X22820D2*
X23283D1*
X4276Y8182D2*
X4500D1*
X6602D2*
X7957D1*
X16700D2*
X17733D1*
X18985D2*
X21602D1*
X22737D2*
X23283D1*
X4276Y8053D2*
X4788D1*
X16700D2*
X21464D1*
X22875D2*
X23283D1*
X4276Y7925D2*
X4798D1*
X16700D2*
X21464D1*
X22875D2*
X23283D1*
X16700Y7796D2*
X18740D1*
X22875D2*
X23283D1*
X16700Y7667D2*
X18675D1*
X22875D2*
X23283D1*
X10352Y7539D2*
X11040D1*
X22875D2*
X23283D1*
X5725Y7410D2*
X5811D1*
X10352D2*
X11040D1*
X22875D2*
X23283D1*
X5725Y7281D2*
X5945D1*
X8512D2*
X9532D1*
X10352D2*
X11040D1*
X22875D2*
X23283D1*
X5725Y7153D2*
X6513D1*
X8510D2*
X9437D1*
X10352D2*
X11040D1*
X22875D2*
X23283D1*
X4276Y7024D2*
X6513D1*
X8776D2*
X9309D1*
X10352D2*
X11040D1*
X22875D2*
X23283D1*
X4276Y6896D2*
X6381D1*
X10352D2*
X11040D1*
X22574D2*
X23283D1*
X4276Y6767D2*
X6381D1*
X9826D2*
X11040D1*
X22694D2*
X23283D1*
X4276Y6638D2*
X6381D1*
X9698D2*
X11040D1*
X22694D2*
X23283D1*
X4276Y6510D2*
X6381D1*
X9570D2*
X10912D1*
X22694D2*
X23283D1*
X4276Y6381D2*
X6381D1*
X8776D2*
X10784D1*
X22694D2*
X23283D1*
X4276Y6253D2*
X6381D1*
X8776D2*
X9102D1*
X9491D2*
X10102D1*
X10490D2*
X10655D1*
X22694D2*
X23283D1*
X4276Y6124D2*
X6381D1*
X8776D2*
X8903D1*
X9690D2*
X9901D1*
X22694D2*
X23283D1*
X4276Y5995D2*
X6381D1*
X18456D2*
X19225D1*
X22694D2*
X23283D1*
X4276Y5867D2*
X4451D1*
X5392D2*
X6381D1*
X18456D2*
X19353D1*
X23108D2*
X23283D1*
X5595Y5738D2*
X6381D1*
X5727Y5610D2*
X6381D1*
X5823Y5481D2*
X6381D1*
X5892Y5352D2*
X7201D1*
X5940Y5224D2*
X7201D1*
X19751D2*
X20386D1*
X5971Y5095D2*
X7204D1*
X19751D2*
X20386D1*
X5983Y4967D2*
X7250D1*
X5981Y4838D2*
X7372D1*
X5963Y4709D2*
X7502D1*
X5928Y4581D2*
X7630D1*
X5873Y4452D2*
X7758D1*
X5798Y4323D2*
X7829D1*
X16685Y9491D2*
X16686Y9297D1*
X16684Y8383D1*
X16686Y8164D1*
Y7642D1*
X17434D1*
Y7636D1*
X18093Y7637D1*
X18651D1*
X18696Y7673D1*
X18721Y7687D1*
X18732Y7751D1*
X18762Y7808D1*
X18809Y7853D1*
X18878Y7882D1*
X18986Y7887D1*
X21434Y7886D1*
X21477Y7890D1*
Y8129D1*
X21665Y8130D1*
X21603Y8196D1*
X21552Y8272D1*
X21513Y8354D1*
X21488Y8441D1*
X21478Y8531D1*
X21481Y8622D1*
X21499Y8711D1*
X21530Y8797D1*
X21575Y8876D1*
X21631Y8947D1*
X21699Y9008D1*
X21769Y9055D1*
X21685Y9113D1*
X21637Y9157D1*
X21595Y9207D1*
X21559Y9260D1*
X21528Y9318D1*
X21505Y9378D1*
X21488Y9441D1*
X21479Y9506D1*
X21477Y9570D1*
X21484Y9641D1*
X21236Y9889D1*
X21196Y9940D1*
X21170Y9999D1*
X21159Y10075D1*
X21157Y11257D1*
X21040D1*
X21039Y11306D1*
X20420D1*
Y11399D1*
X20339Y11474D1*
X20188Y11625D1*
X20146Y11680D1*
X19628Y11678D1*
X19472Y11524D1*
Y10940D1*
X19294D1*
X19295Y10233D1*
X17792D1*
Y10268D1*
X16684Y10266D1*
Y9493D1*
X18443Y5894D2*
Y5822D1*
X18990Y5820D1*
X19001Y5822D1*
X19405D1*
X19392Y5841D1*
X19233Y6001D1*
X19192Y6054D1*
X18826Y6052D1*
X18666Y6049D1*
X18445D1*
X18443Y5849D1*
X14308Y11302D2*
Y11841D1*
X13630D1*
X14168Y11305D1*
X14308Y11302D1*
X14310Y11322D1*
X14308Y12371D2*
Y13022D1*
X10508D1*
X9895Y12411D1*
X9437Y11953D1*
X9436Y11122D1*
X9484Y11140D1*
X9593Y11145D1*
X10114D1*
X10115Y11732D1*
X10125Y11796D1*
X10156Y11853D1*
X10203Y11898D1*
X10271Y11928D1*
X10380Y11932D1*
X10463D1*
Y12244D1*
X10471Y12308D1*
X10495Y12369D1*
X10541Y12432D1*
X10984Y12874D1*
X11035Y12914D1*
X11094Y12941D1*
X11171Y12952D1*
X12805D1*
X12869Y12944D1*
X12930Y12921D1*
X12993Y12874D1*
X13496Y12371D1*
X14309D1*
X14310Y12503D1*
X8363Y10564D2*
X8365Y11010D1*
X8378Y11060D1*
X8404Y11105D1*
X8440Y11142D1*
X8485Y11168D1*
X8535Y11182D1*
X8615Y11184D1*
X8906D1*
Y12062D1*
X8914Y12126D1*
X8937Y12187D1*
X8984Y12249D1*
X10189Y13454D1*
X5737Y13455D1*
X5792Y13383D1*
X5858Y13272D1*
X5909Y13152D1*
X5946Y13028D1*
X5967Y12900D1*
X5972Y12795D1*
X5964Y12666D1*
X5940Y12538D1*
X5900Y12414D1*
X5846Y12297D1*
X5777Y12186D1*
X5696Y12085D1*
X5602Y11995D1*
X5498Y11917D1*
X5386Y11853D1*
X5266Y11803D1*
X5141Y11768D1*
X5012Y11749D1*
X4882Y11745D1*
X4753Y11758D1*
X4627Y11787D1*
X4504Y11831D1*
X4389Y11890D1*
X4281Y11962D1*
X4261Y11979D1*
X4262Y10764D1*
Y7876D1*
X4417Y7877D1*
X4832D1*
X4819Y7905D1*
X4802Y7968D1*
X4800Y8002D1*
Y8105D1*
X4704Y8107D1*
X4647Y8111D1*
X4598Y8126D1*
X4552Y8150D1*
X4512Y8183D1*
X4479Y8223D1*
X4455Y8269D1*
X4440Y8319D1*
X4436Y8371D1*
X4442Y8422D1*
X4455Y8466D1*
X4438Y8529D1*
Y8593D1*
X4455Y8663D1*
X4438Y8725D1*
Y8790D1*
X4455Y8860D1*
X4438Y8922D1*
Y8987D1*
X4455Y9056D1*
X4438Y9119D1*
Y9184D1*
X4455Y9253D1*
X4438Y9316D1*
Y9381D1*
X4453Y9444D1*
X4484Y9501D1*
X4540Y9556D1*
X4538Y9688D1*
X4495Y9732D1*
X4457Y9784D1*
X4428Y9842D1*
X4409Y9904D1*
X4400Y9969D1*
X4402Y10120D1*
X4404Y10823D1*
X4402Y10867D1*
Y11492D1*
X5196D1*
Y11006D1*
X5378D1*
X5737Y11366D1*
X5788Y11406D1*
X5847Y11432D1*
X5924Y11444D1*
X6549D1*
X6614Y11436D1*
X6674Y11412D1*
X6737Y11366D1*
X7237Y10866D1*
X7288Y10793D1*
X7364Y10763D1*
X7613D1*
Y10363D1*
X8367D1*
X8399Y10437D1*
X8375Y10483D1*
X8364Y10533D1*
X8363Y10564D1*
X8809Y9682D2*
X8756Y9681D1*
Y9523D1*
X8841Y9537D1*
X9326D1*
X9327Y9592D1*
Y9636D1*
X8957Y9637D1*
X8892Y9644D1*
X8810Y9681D1*
X8756Y9678D1*
Y9672D1*
X7962Y9256D2*
X7964Y9702D1*
X7977Y9752D1*
X8003Y9797D1*
X8039Y9834D1*
X7464Y9833D1*
X7400Y9841D1*
X7339Y9865D1*
X7275Y9912D1*
X7237Y9866D1*
X6987Y9616D1*
X6936Y9576D1*
X6876Y9550D1*
X6799Y9539D1*
X6785D1*
X6762Y9513D1*
X6711Y9473D1*
X6649Y9439D1*
X6657Y9419D1*
X6667Y9350D1*
X6659Y9286D1*
X6646Y9254D1*
X6657Y9222D1*
X6667Y9154D1*
X6659Y9089D1*
X6646Y9057D1*
X6657Y9025D1*
X6667Y8957D1*
X6659Y8892D1*
X6646Y8860D1*
X6657Y8828D1*
X6667Y8760D1*
X6659Y8696D1*
X6646Y8664D1*
X6657Y8631D1*
X6667Y8563D1*
X6659Y8499D1*
X6646Y8467D1*
X6661Y8422D1*
X6667Y8366D1*
X6661Y8315D1*
X6646Y8265D1*
X6621Y8219D1*
X6588Y8180D1*
X6547Y8148D1*
X6501Y8124D1*
X6451Y8111D1*
X6381Y8107D1*
X6302D1*
Y8078D1*
X7115Y8077D1*
X7169Y8113D1*
X7231Y8134D1*
X7348Y8139D1*
X7610D1*
X7647Y8154D1*
X7709Y8170D1*
X7774Y8176D1*
X7839Y8171D1*
X7902Y8155D1*
X7970Y8124D1*
X7969Y8522D1*
X7962Y8573D1*
Y9006D1*
X7977Y9082D1*
X7998Y9128D1*
X7974Y9174D1*
X7963Y9225D1*
X7962Y9256D1*
X17758Y9073D2*
X18972D1*
Y8122D1*
X17745D1*
Y9073D1*
X17758D1*
X10338Y7556D2*
Y6867D1*
X9913Y6866D1*
X9546Y6500D1*
X9495Y6460D1*
X9436Y6433D1*
X9359Y6422D1*
X8764D1*
X8763Y6217D1*
X8764Y5798D1*
X8776Y5874D1*
X8800Y5949D1*
X8834Y6019D1*
X8878Y6083D1*
X8931Y6140D1*
X8992Y6189D1*
X9059Y6229D1*
X9131Y6258D1*
X9206Y6277D1*
X9284Y6284D1*
X9362Y6280D1*
X9438Y6265D1*
X9511Y6239D1*
X9580Y6203D1*
X9643Y6156D1*
X9699Y6102D1*
X9745Y6040D1*
X9783Y5971D1*
X9796Y5939D1*
X9828Y6007D1*
X9862Y6062D1*
X9904Y6112D1*
X9950Y6157D1*
X10002Y6196D1*
X10059Y6229D1*
X10118Y6254D1*
X10181Y6272D1*
X10245Y6282D1*
X10310Y6284D1*
X10375Y6278D1*
X10438Y6265D1*
X10500Y6244D1*
X10558Y6216D1*
X10604Y6186D1*
X10769Y6354D1*
X10944Y6529D1*
X11017Y6581D1*
X11054Y6601D1*
Y7558D1*
X10932Y7557D1*
X10879Y7563D1*
X10827Y7556D1*
X10617Y7557D1*
X10564Y7563D1*
X10512Y7556D1*
X10339D1*
X10336Y7536D1*
X9544Y7246D2*
X9542Y7401D1*
Y7389D1*
X8551D1*
X8553Y7986D1*
X8551Y8030D1*
Y8372D1*
X8499Y8370D1*
Y7187D1*
X8491Y7123D1*
X8466Y7061D1*
X8489Y7050D1*
X8763D1*
Y6951D1*
X9249Y6952D1*
X9543Y7246D1*
X22562Y6854D2*
X22680D1*
Y5971D1*
X22818Y5956D1*
X22945Y5926D1*
X23066Y5880D1*
X23181Y5820D1*
X23299Y5737D1*
X23297Y6237D1*
Y11976D1*
X23215Y11917D1*
X23102Y11853D1*
X22982Y11803D1*
X22857Y11768D1*
X22729Y11749D1*
X22599Y11745D1*
X22470Y11758D1*
X22343Y11787D1*
X22221Y11831D1*
X22105Y11890D1*
X21998Y11962D1*
X21934Y12016D1*
Y11669D1*
X22355Y11250D1*
X22395Y11199D1*
X22421Y11137D1*
X22439Y11109D1*
X22500Y11088D1*
X22559Y11061D1*
X22614Y11027D1*
X22665Y10987D1*
X22712Y10942D1*
X22753Y10891D1*
X22788Y10837D1*
X22816Y10778D1*
X22838Y10717D1*
X22853Y10654D1*
X22861Y10555D1*
X22858Y10490D1*
X22847Y10426D1*
X22829Y10364D1*
X22804Y10304D1*
X22772Y10247D1*
X22734Y10195D1*
X22691Y10146D1*
X22642Y10104D1*
X22569Y10056D1*
X22665Y9987D1*
X22712Y9942D1*
X22753Y9891D1*
X22788Y9837D1*
X22816Y9778D1*
X22838Y9717D1*
X22853Y9654D1*
X22861Y9555D1*
X22858Y9490D1*
X22847Y9426D1*
X22829Y9364D1*
X22804Y9304D1*
X22772Y9247D1*
X22734Y9195D1*
X22691Y9146D1*
X22642Y9104D1*
X22569Y9056D1*
X22646Y9004D1*
X22712Y8942D1*
X22768Y8870D1*
X22811Y8790D1*
X22842Y8705D1*
X22858Y8615D1*
X22861Y8529D1*
X22850Y8439D1*
X22824Y8352D1*
X22785Y8270D1*
X22734Y8195D1*
X22672Y8129D1*
X22861D1*
Y6981D1*
X22563D1*
X22562Y6855D1*
X19768Y5084D2*
X20400D1*
X20399Y5311D1*
X19739D1*
X19738Y5085D1*
X19768Y5084D1*
X10397Y10862D2*
X10396Y10736D1*
X10390Y10682D1*
X10397Y10630D1*
X10396Y10421D1*
X10389Y10371D1*
X10397Y10315D1*
Y10200D1*
X10472D1*
X10537Y10193D1*
X10598Y10172D1*
X10663Y10132D1*
X10841Y9955D1*
X10888Y9893D1*
X10916Y9885D1*
X12635D1*
X12636Y10026D1*
X12644Y10059D1*
X12635Y10118D1*
Y10327D1*
X12642Y10381D1*
X12635Y10433D1*
Y10642D1*
X12642Y10696D1*
X12635Y10748D1*
Y10864D1*
X12507D1*
X12453Y10870D1*
X12402Y10863D1*
X12375D1*
X12374Y10500D1*
X12366Y10435D1*
X12343Y10375D1*
X12296Y10312D1*
X12109Y10125D1*
X12058Y10085D1*
X11998Y10058D1*
X11921Y10047D1*
X11408D1*
X11334Y9981D1*
X11277Y9949D1*
X11216Y9927D1*
X11152Y9914D1*
X11088Y9912D1*
X11023Y9921D1*
X10961Y9940D1*
X10903Y9969D1*
X10850Y10007D1*
X10804Y10052D1*
X10766Y10105D1*
X10737Y10163D1*
X10718Y10225D1*
X10709Y10289D1*
X10711Y10354D1*
X10723Y10418D1*
X10745Y10479D1*
X10777Y10536D1*
X10817Y10586D1*
X10866Y10630D1*
X10920Y10665D1*
X10980Y10691D1*
X11043Y10707D1*
X11107Y10712D1*
X11172Y10707D1*
X11235Y10692D1*
X11270Y10677D1*
X11273Y10729D1*
X11285Y10793D1*
X11313Y10863D1*
X11247Y10864D1*
X11193Y10870D1*
X11142Y10863D1*
X10932Y10864D1*
X10879Y10870D1*
X10827Y10863D1*
X10617Y10864D1*
X10564Y10870D1*
X10512Y10863D1*
X10396D1*
X6123Y10763D2*
X6590D1*
X6438Y10915D1*
X6036Y10914D1*
X5883Y10763D1*
X6425D1*
X5043Y7084D2*
X4262Y7083D1*
Y5740D1*
X4355Y5806D1*
X4468Y5869D1*
X4589Y5918D1*
X4714Y5951D1*
X4843Y5969D1*
X4973Y5971D1*
X5102Y5956D1*
X5228Y5926D1*
X5350Y5880D1*
X5465Y5820D1*
X5571Y5746D1*
X5668Y5660D1*
X5754Y5562D1*
X5826Y5455D1*
X5885Y5339D1*
X5929Y5217D1*
X5958Y5090D1*
X5971Y4961D1*
X5970Y4856D1*
X5954Y4727D1*
X5922Y4602D1*
X5875Y4481D1*
X5813Y4366D1*
X5739Y4262D1*
X7864D1*
X7842Y4320D1*
X7837Y4398D1*
X7785Y4439D1*
X7293Y4931D1*
X7253Y4982D1*
X7227Y5041D1*
X7215Y5118D1*
Y5449D1*
X6394Y5450D1*
X6396Y6283D1*
X6394Y6574D1*
Y6952D1*
X6526D1*
Y7236D1*
X6109Y7234D1*
X6044Y7242D1*
X5984Y7266D1*
X5921Y7312D1*
X5710Y7523D1*
X5712Y7083D1*
X4879Y7085D1*
X14308Y11516D2*
X14724D1*
X14308Y12697D2*
X14724D1*
X8760Y11184D2*
Y10768D1*
X8363D2*
X8760D1*
X18878Y10630D2*
Y10233D1*
Y10630D2*
X19294D1*
X4799Y11492D2*
Y11076D1*
X4403D2*
X5196D1*
X7962Y9459D2*
X8359D1*
X18359Y9073D2*
Y8122D1*
X17746Y8597D2*
X18972D1*
X21477Y8555D2*
X22861D1*
X9296Y6284D2*
Y5750D1*
X8762D2*
X9296D1*
X20171Y5084D2*
Y4687D1*
X8366Y5965D2*
X8763D1*
X19921Y12008D2*
Y11680D1*
X6299Y8366D2*
Y8107D1*
Y8366D2*
X6666D1*
X4803D2*
Y8107D1*
X4436Y8366D2*
X4803D1*
X18878Y11258D2*
X19471D1*
X9862Y10217D2*
X10397D1*
X9328Y9587D2*
X9862D1*
X12635Y9902D2*
X13169D1*
X19046Y5822D2*
Y5406D1*
X6527Y10763D2*
Y10366D1*
X6009Y10763D2*
Y10366D1*
X4626Y7877D2*
Y7084D1*
X8551Y8159D2*
X9046D1*
D20*
X16171Y8937D3*
X17274D3*
X16171Y8000D3*
X17274D3*
D21*
X19546Y7312D3*
Y8414D3*
D22*
X18046Y5477D3*
Y6147D3*
D23*
X15394Y11516D3*
X14724D3*
X15394Y12697D3*
X14724D3*
Y10925D3*
X15394D3*
G36*
X8957Y10551D2*
X8563D1*
Y10984D1*
X8957D1*
Y10551D1*
G37*
G36*
Y9882D2*
X8563D1*
Y10315D1*
X8957D1*
Y9882D1*
G37*
D23*
X18878Y10630D3*
X18209D3*
D22*
X4799Y11076D3*
Y10406D3*
G36*
X14243Y9720D2*
X13849D1*
Y10154D1*
X14243D1*
Y9720D1*
G37*
G36*
Y9051D2*
X13849D1*
Y9484D1*
X14243D1*
Y9051D1*
G37*
G36*
X8556Y9243D2*
X8162D1*
Y9676D1*
X8556D1*
Y9243D1*
G37*
G36*
Y8573D2*
X8162D1*
Y9006D1*
X8556D1*
Y8573D1*
G37*
D23*
X6527Y10366D3*
X7196D3*
X6009D3*
X5340D3*
X4626Y7480D3*
X5295D3*
D25*
X18359Y7062D3*
Y8597D3*
D21*
X20421Y7312D3*
Y8414D3*
D27*
X17466Y5455D3*
X16127D3*
D22*
X21296Y5397D3*
Y4727D3*
X9941Y7283D3*
Y7953D3*
D20*
X21063Y6299D3*
X22165D3*
D28*
X22169Y7555D3*
D29*
Y8555D3*
Y9555D3*
Y10555D3*
D30*
X9296Y4750D3*
D31*
Y5750D3*
X10296Y4750D3*
Y5750D3*
X11296Y4750D3*
Y5750D3*
X12296Y4750D3*
Y5750D3*
X13296Y4750D3*
Y5750D3*
D32*
X16171Y6812D3*
X17037D3*
D23*
X18796Y4687D3*
X18127D3*
X20171D3*
X19502D3*
D22*
X20046Y5727D3*
Y6397D3*
X20796Y4727D3*
Y5397D3*
G36*
X8431Y5033D2*
X8037D1*
Y5466D1*
X8431D1*
Y5033D1*
G37*
G36*
Y4364D2*
X8037D1*
Y4797D1*
X8431D1*
Y4364D1*
G37*
D22*
X8366Y5965D3*
Y6634D3*
D23*
X14724Y12106D3*
X15394D3*
X14724Y13287D3*
X15394D3*
X14724Y10335D3*
X15394D3*
D22*
X7480Y5866D3*
Y6535D3*
X6791Y5866D3*
Y6535D3*
D34*
X20827Y11634D3*
Y12382D3*
X19921Y12008D3*
D36*
X21358Y12441D3*
Y11575D3*
D38*
X6299Y8366D3*
Y8563D3*
Y8760D3*
Y8957D3*
Y9154D3*
Y9350D3*
D39*
X6043Y9606D3*
X5846D3*
X5650D3*
X5453D3*
X5256D3*
X5059D3*
D38*
X4803Y9350D3*
Y9154D3*
Y8957D3*
Y8760D3*
Y8563D3*
Y8366D3*
D39*
X5059Y8110D3*
X5256D3*
X5453D3*
X5650D3*
X5846D3*
X6043D3*
D40*
X5551Y8858D3*
D41*
X16752Y12758D3*
Y12258D3*
Y11758D3*
Y11258D3*
X18878D3*
Y11758D3*
Y12258D3*
Y12758D3*
G36*
X9528Y10748D2*
Y10945D1*
X10197D1*
Y10748D1*
X9528D1*
G37*
G36*
Y10433D2*
Y10630D1*
X10197D1*
Y10433D1*
X9528D1*
G37*
G36*
Y10118D2*
Y10315D1*
X10197D1*
Y10118D1*
X9528D1*
G37*
G36*
Y9803D2*
Y10000D1*
X10197D1*
Y9803D1*
X9528D1*
G37*
G36*
Y9488D2*
Y9685D1*
X10197D1*
Y9488D1*
X9528D1*
G37*
G36*
Y9173D2*
Y9370D1*
X10197D1*
Y9173D1*
X9528D1*
G37*
G36*
Y8858D2*
Y9055D1*
X10197D1*
Y8858D1*
X9528D1*
G37*
G36*
Y8543D2*
Y8740D1*
X10197D1*
Y8543D1*
X9528D1*
G37*
G36*
X10512Y7756D2*
X10315D1*
Y8425D1*
X10512D1*
Y7756D1*
G37*
G36*
X10827D2*
X10630D1*
Y8425D1*
X10827D1*
Y7756D1*
G37*
G36*
X11142D2*
X10945D1*
Y8425D1*
X11142D1*
Y7756D1*
G37*
G36*
X11457D2*
X11260D1*
Y8425D1*
X11457D1*
Y7756D1*
G37*
G36*
X11772D2*
X11575D1*
Y8425D1*
X11772D1*
Y7756D1*
G37*
G36*
X12087D2*
X11890D1*
Y8425D1*
X12087D1*
Y7756D1*
G37*
G36*
X12402D2*
X12205D1*
Y8425D1*
X12402D1*
Y7756D1*
G37*
G36*
X12717D2*
X12520D1*
Y8425D1*
X12717D1*
Y7756D1*
G37*
G36*
X12835Y8543D2*
Y8740D1*
X13504D1*
Y8543D1*
X12835D1*
G37*
G36*
Y8858D2*
Y9055D1*
X13504D1*
Y8858D1*
X12835D1*
G37*
G36*
Y9173D2*
Y9370D1*
X13504D1*
Y9173D1*
X12835D1*
G37*
G36*
Y9488D2*
Y9685D1*
X13504D1*
Y9488D1*
X12835D1*
G37*
G36*
Y9803D2*
Y10000D1*
X13504D1*
Y9803D1*
X12835D1*
G37*
G36*
Y10118D2*
Y10315D1*
X13504D1*
Y10118D1*
X12835D1*
G37*
G36*
Y10433D2*
Y10630D1*
X13504D1*
Y10433D1*
X12835D1*
G37*
G36*
Y10748D2*
Y10945D1*
X13504D1*
Y10748D1*
X12835D1*
G37*
G36*
X12717Y11063D2*
X12520D1*
Y11732D1*
X12717D1*
Y11063D1*
G37*
G36*
X12402D2*
X12205D1*
Y11732D1*
X12402D1*
Y11063D1*
G37*
G36*
X12087D2*
X11890D1*
Y11732D1*
X12087D1*
Y11063D1*
G37*
G36*
X11772D2*
X11575D1*
Y11732D1*
X11772D1*
Y11063D1*
G37*
G36*
X11457D2*
X11260D1*
Y11732D1*
X11457D1*
Y11063D1*
G37*
G36*
X11142D2*
X10945D1*
Y11732D1*
X11142D1*
Y11063D1*
G37*
G36*
X10827D2*
X10630D1*
Y11732D1*
X10827D1*
Y11063D1*
G37*
G36*
X10512D2*
X10315D1*
Y11732D1*
X10512D1*
Y11063D1*
G37*
D43*
X18672Y5406D3*
X19046D3*
X19420D3*
Y6469D3*
X19046D3*
X18672D3*
D44*
X9046Y8632D3*
Y8159D3*
Y7687D3*
M02*
