G04 DipTrace 2.4.0.2*
%INBottom.gbr*%
%MOIN*%
%ADD15C,0.013*%
%ADD28R,0.0984X0.0748*%
%ADD29O,0.0984X0.0748*%
%ADD30R,0.0669X0.0669*%
%ADD31C,0.0669*%
%ADD45C,0.04*%
%FSLAX44Y44*%
G04*
G70*
G90*
G75*
G01*
%LNBottom*%
%LPD*%
X7382Y7382D2*
D15*
X8679D1*
X11671Y10375D1*
Y10687D1*
X7776Y7776D2*
X8572D1*
X11109Y10312D1*
X20171Y5187D2*
X20546D1*
Y6038D1*
Y8062D1*
X21039Y8555D1*
X22169D1*
X20546Y6038D2*
X19147D1*
X19046Y5937D1*
X9296Y5750D2*
X6234D1*
X5484Y6500D1*
Y6988D1*
Y8366D1*
Y9187D1*
X5647Y9350D1*
X6693D1*
X6890Y9547D1*
Y10236D1*
X6299Y10827D1*
Y10925D1*
X6037Y11187D1*
X5841D1*
X5610Y11417D1*
Y11516D1*
X7406Y13312D1*
X9296D1*
X12494D1*
X13435Y12371D1*
X14075Y11731D1*
X15409Y10397D1*
X17744Y8062D1*
X20546D1*
X6693Y8366D2*
X5484D1*
X4626Y6988D2*
X5484D1*
X8268Y10827D2*
X7480D1*
X6890Y10236D1*
X7484Y9437D2*
X7030D1*
X6905Y9562D1*
X6890Y9547D1*
X13976Y12795D2*
X13860D1*
X13435Y12371D1*
X14665Y9744D2*
X14756D1*
X15409Y10397D1*
X14075Y11614D2*
Y11731D1*
X9296Y13187D2*
Y13312D1*
X8984Y7125D2*
Y6062D1*
X9296Y5750D1*
X6487Y9804D2*
X5299D1*
X5112Y9991D1*
X4799D1*
X10296Y4750D2*
X10360D1*
X10827Y5217D1*
Y6156D1*
X10171Y6812D1*
Y8400D1*
X12205Y10433D1*
Y11404D1*
X11546Y12062D1*
D45*
X7382Y7382D3*
X11671Y10687D3*
X7776Y7776D3*
X11109Y10312D3*
X20171Y5187D3*
X19046Y5937D3*
X5610Y11516D3*
X6299Y10827D3*
X6693Y8366D3*
X4626Y6988D3*
X8268Y10827D3*
X7484Y9437D3*
X13976Y12795D3*
X14665Y9744D3*
X14075Y11614D3*
X8984Y7125D3*
X4799Y9991D3*
X6487Y9804D3*
X11546Y12062D3*
X10609Y7375D3*
X9921Y6500D3*
X7234Y4437D3*
X9296Y13187D3*
X21234Y9187D3*
X9843Y11614D3*
X18671Y9187D3*
X17921D3*
X17796Y9812D3*
X19671Y9187D3*
X20421D3*
X5841Y13326D2*
D15*
X21718D1*
X5904Y13198D2*
X21655D1*
X5949Y13069D2*
X21611D1*
X5975Y12940D2*
X21584D1*
X5985Y12812D2*
X21574D1*
X5979Y12683D2*
X21580D1*
X5957Y12554D2*
X21602D1*
X5918Y12426D2*
X11367D1*
X11726D2*
X21641D1*
X5859Y12297D2*
X11211D1*
X11882D2*
X21700D1*
X5778Y12169D2*
X11148D1*
X11945D2*
X21781D1*
X5664Y12040D2*
X11134D1*
X11959D2*
X21895D1*
X5502Y11911D2*
X11162D1*
X12085D2*
X22057D1*
X23218D2*
X23283D1*
X4276Y11783D2*
X4629D1*
X5214D2*
X11247D1*
X12213D2*
X22345D1*
X22930D2*
X23283D1*
X4276Y11654D2*
X11566D1*
X12341D2*
X23283D1*
X4276Y11526D2*
X11696D1*
X12453D2*
X23283D1*
X4276Y11397D2*
X11824D1*
X12483D2*
X23283D1*
X4276Y11268D2*
X11927D1*
X12483D2*
X23283D1*
X4276Y11140D2*
X11927D1*
X12483D2*
X23283D1*
X4276Y11011D2*
X11424D1*
X12483D2*
X21690D1*
X22650D2*
X23283D1*
X4276Y10883D2*
X11310D1*
X12483D2*
X21566D1*
X22771D2*
X23283D1*
X4276Y10754D2*
X11264D1*
X12483D2*
X21499D1*
X22838D2*
X23283D1*
X4276Y10625D2*
X10847D1*
X12483D2*
X21468D1*
X22871D2*
X23283D1*
X4276Y10497D2*
X10742D1*
X12483D2*
X21466D1*
X22871D2*
X23283D1*
X4276Y10368D2*
X4652D1*
X4946D2*
X10699D1*
X12475D2*
X21495D1*
X22842D2*
X23283D1*
X4276Y10240D2*
X4473D1*
X5218D2*
X10648D1*
X12398D2*
X21558D1*
X22779D2*
X23283D1*
X4276Y10111D2*
X4404D1*
X5380D2*
X6217D1*
X6756D2*
X10521D1*
X12270D2*
X21676D1*
X22664D2*
X23283D1*
X4276Y9982D2*
X4386D1*
X6858D2*
X10391D1*
X12142D2*
X21655D1*
X22684D2*
X23283D1*
X4276Y9854D2*
X4410D1*
X6897D2*
X10263D1*
X12012D2*
X21548D1*
X22790D2*
X23283D1*
X4276Y9725D2*
X4487D1*
X6893D2*
X10135D1*
X11884D2*
X21491D1*
X22848D2*
X23283D1*
X4276Y9596D2*
X4721D1*
X4877D2*
X5121D1*
X6842D2*
X10005D1*
X11756D2*
X21466D1*
X22873D2*
X23283D1*
X4276Y9468D2*
X6255D1*
X6718D2*
X9877D1*
X11627D2*
X21470D1*
X22867D2*
X23283D1*
X4276Y9339D2*
X9749D1*
X11499D2*
X21507D1*
X22832D2*
X23283D1*
X4276Y9211D2*
X9619D1*
X11371D2*
X21580D1*
X22759D2*
X23283D1*
X4276Y9082D2*
X9491D1*
X11241D2*
X21714D1*
X22625D2*
X23283D1*
X4276Y8953D2*
X9363D1*
X11113D2*
X21625D1*
X22714D2*
X23283D1*
X4276Y8825D2*
X9234D1*
X10985D2*
X21531D1*
X22808D2*
X23283D1*
X4276Y8696D2*
X9106D1*
X10855D2*
X21483D1*
X22857D2*
X23283D1*
X4276Y8568D2*
X8976D1*
X10727D2*
X21464D1*
X22875D2*
X23283D1*
X4276Y8439D2*
X8848D1*
X10597D2*
X21477D1*
X22863D2*
X23283D1*
X4276Y8310D2*
X8720D1*
X10469D2*
X21519D1*
X22820D2*
X23283D1*
X4276Y8182D2*
X8590D1*
X10449D2*
X21602D1*
X22737D2*
X23283D1*
X4276Y8053D2*
X7476D1*
X8076D2*
X8462D1*
X9737D2*
X9893D1*
X10449D2*
X21464D1*
X22875D2*
X23283D1*
X4276Y7925D2*
X7392D1*
X9609D2*
X9893D1*
X10449D2*
X21464D1*
X22875D2*
X23283D1*
X4276Y7796D2*
X7364D1*
X9481D2*
X9893D1*
X10449D2*
X21464D1*
X22875D2*
X23283D1*
X4276Y7667D2*
X7088D1*
X9351D2*
X9893D1*
X10449D2*
X21464D1*
X22875D2*
X23283D1*
X4276Y7539D2*
X7001D1*
X9223D2*
X9893D1*
X10449D2*
X21464D1*
X22875D2*
X23283D1*
X4276Y7410D2*
X6970D1*
X9095D2*
X9893D1*
X10449D2*
X21464D1*
X22875D2*
X23283D1*
X4276Y7281D2*
X6982D1*
X8965D2*
X9893D1*
X10449D2*
X21464D1*
X22875D2*
X23283D1*
X4276Y7153D2*
X7041D1*
X8825D2*
X9893D1*
X10449D2*
X21464D1*
X22875D2*
X23283D1*
X4276Y7024D2*
X7189D1*
X7575D2*
X9893D1*
X10449D2*
X21464D1*
X22875D2*
X23283D1*
X4276Y6896D2*
X9893D1*
X10475D2*
X23283D1*
X4276Y6767D2*
X9897D1*
X10603D2*
X23283D1*
X4276Y6638D2*
X9958D1*
X10733D2*
X23283D1*
X4276Y6510D2*
X10086D1*
X10861D2*
X23283D1*
X4276Y6381D2*
X10214D1*
X10989D2*
X23283D1*
X4276Y6253D2*
X9102D1*
X9491D2*
X10102D1*
X11491D2*
X12102D1*
X12489D2*
X13103D1*
X13490D2*
X23283D1*
X4276Y6124D2*
X8903D1*
X9690D2*
X9901D1*
X11691D2*
X11901D1*
X12690D2*
X12902D1*
X13691D2*
X23283D1*
X4276Y5995D2*
X8809D1*
X13784D2*
X23283D1*
X4276Y5867D2*
X4451D1*
X5392D2*
X8763D1*
X13831D2*
X22167D1*
X23108D2*
X23283D1*
X5595Y5738D2*
X8748D1*
X13843D2*
X21964D1*
X5727Y5610D2*
X8767D1*
X13825D2*
X21832D1*
X5823Y5481D2*
X8821D1*
X13772D2*
X21736D1*
X5892Y5352D2*
X8925D1*
X13667D2*
X21667D1*
X5940Y5224D2*
X8748D1*
X13555D2*
X21619D1*
X5971Y5095D2*
X8748D1*
X13717D2*
X21588D1*
X5983Y4967D2*
X8748D1*
X13799D2*
X21576D1*
X5981Y4838D2*
X8748D1*
X13837D2*
X21578D1*
X5963Y4709D2*
X8748D1*
X13843D2*
X21596D1*
X5928Y4581D2*
X8748D1*
X13817D2*
X21631D1*
X5873Y4452D2*
X8748D1*
X13754D2*
X21686D1*
X5798Y4323D2*
X8748D1*
X13632D2*
X21761D1*
X21542Y8129D2*
X21665Y8130D1*
X21603Y8196D1*
X21552Y8272D1*
X21513Y8354D1*
X21488Y8441D1*
X21478Y8531D1*
X21481Y8622D1*
X21499Y8711D1*
X21530Y8797D1*
X21575Y8876D1*
X21631Y8947D1*
X21699Y9008D1*
X21769Y9055D1*
X21685Y9113D1*
X21637Y9157D1*
X21595Y9207D1*
X21559Y9260D1*
X21528Y9318D1*
X21505Y9378D1*
X21488Y9441D1*
X21479Y9506D1*
X21477Y9570D1*
X21483Y9635D1*
X21495Y9699D1*
X21515Y9761D1*
X21542Y9820D1*
X21575Y9876D1*
X21614Y9927D1*
X21659Y9974D1*
X21709Y10016D1*
X21769Y10054D1*
X21685Y10113D1*
X21637Y10157D1*
X21595Y10207D1*
X21559Y10260D1*
X21528Y10318D1*
X21505Y10378D1*
X21488Y10441D1*
X21479Y10506D1*
X21477Y10570D1*
X21483Y10635D1*
X21495Y10699D1*
X21515Y10761D1*
X21542Y10820D1*
X21575Y10876D1*
X21614Y10927D1*
X21659Y10974D1*
X21709Y11016D1*
X21763Y11052D1*
X21821Y11081D1*
X21882Y11104D1*
X21945Y11119D1*
X22052Y11128D1*
X22287Y11129D1*
X22310D1*
X22375Y11122D1*
X22439Y11109D1*
X22500Y11088D1*
X22559Y11061D1*
X22614Y11027D1*
X22665Y10987D1*
X22712Y10942D1*
X22753Y10891D1*
X22788Y10837D1*
X22816Y10778D1*
X22838Y10717D1*
X22853Y10654D1*
X22861Y10555D1*
X22858Y10490D1*
X22847Y10426D1*
X22829Y10364D1*
X22804Y10304D1*
X22772Y10247D1*
X22734Y10195D1*
X22691Y10146D1*
X22642Y10104D1*
X22569Y10056D1*
X22665Y9987D1*
X22712Y9942D1*
X22753Y9891D1*
X22788Y9837D1*
X22816Y9778D1*
X22838Y9717D1*
X22853Y9654D1*
X22861Y9555D1*
X22858Y9490D1*
X22847Y9426D1*
X22829Y9364D1*
X22804Y9304D1*
X22772Y9247D1*
X22734Y9195D1*
X22691Y9146D1*
X22642Y9104D1*
X22569Y9056D1*
X22646Y9004D1*
X22712Y8942D1*
X22768Y8870D1*
X22811Y8790D1*
X22842Y8705D1*
X22858Y8615D1*
X22861Y8529D1*
X22850Y8439D1*
X22824Y8352D1*
X22785Y8270D1*
X22734Y8195D1*
X22672Y8129D1*
X22861D1*
Y6981D1*
X21477D1*
Y8129D1*
X21542D1*
X8826Y5284D2*
X9031Y5285D1*
X8967Y5329D1*
X8909Y5381D1*
X8859Y5441D1*
X8819Y5508D1*
X8789Y5580D1*
X8770Y5655D1*
X8762Y5733D1*
X8765Y5810D1*
X8780Y5887D1*
X8805Y5961D1*
X8841Y6030D1*
X8886Y6093D1*
X8941Y6149D1*
X9002Y6196D1*
X9070Y6234D1*
X9143Y6262D1*
X9219Y6279D1*
X9297Y6284D1*
X9375Y6278D1*
X9451Y6261D1*
X9523Y6234D1*
X9591Y6196D1*
X9653Y6148D1*
X9707Y6092D1*
X9752Y6029D1*
X9788Y5959D1*
X9796Y5939D1*
X9828Y6007D1*
X9862Y6062D1*
X9904Y6112D1*
X9950Y6157D1*
X10002Y6196D1*
X10059Y6229D1*
X10118Y6254D1*
X10181Y6272D1*
X10245Y6282D1*
X10324Y6283D1*
X9984Y6625D1*
X9944Y6676D1*
X9918Y6735D1*
X9906Y6812D1*
Y8235D1*
X8866Y7194D1*
X8815Y7155D1*
X8756Y7128D1*
X8679Y7117D1*
X7682D1*
X7607Y7051D1*
X7550Y7019D1*
X7489Y6996D1*
X7426Y6984D1*
X7361Y6982D1*
X7296Y6991D1*
X7234Y7010D1*
X7176Y7039D1*
X7123Y7077D1*
X7077Y7122D1*
X7040Y7175D1*
X7011Y7233D1*
X6991Y7295D1*
X6982Y7359D1*
X6984Y7424D1*
X6996Y7488D1*
X7018Y7549D1*
X7050Y7605D1*
X7091Y7656D1*
X7139Y7700D1*
X7193Y7735D1*
X7253Y7761D1*
X7316Y7776D1*
X7374Y7781D1*
X7390Y7882D1*
X7412Y7943D1*
X7444Y7999D1*
X7484Y8050D1*
X7532Y8093D1*
X7587Y8128D1*
X7647Y8154D1*
X7709Y8170D1*
X7774Y8176D1*
X7839Y8171D1*
X7902Y8155D1*
X7962Y8130D1*
X8016Y8095D1*
X8074Y8041D1*
X8464D1*
X10130Y9709D1*
X10709Y10289D1*
X10711Y10354D1*
X10723Y10418D1*
X10745Y10479D1*
X10777Y10536D1*
X10817Y10586D1*
X10866Y10630D1*
X10920Y10665D1*
X10980Y10691D1*
X11043Y10707D1*
X11107Y10712D1*
X11172Y10707D1*
X11235Y10692D1*
X11270Y10677D1*
X11273Y10729D1*
X11285Y10793D1*
X11308Y10854D1*
X11339Y10911D1*
X11380Y10961D1*
X11428Y11005D1*
X11483Y11040D1*
X11542Y11066D1*
X11605Y11082D1*
X11670Y11087D1*
X11734Y11082D1*
X11798Y11067D1*
X11857Y11041D1*
X11912Y11007D1*
X11941Y10981D1*
X11940Y11296D1*
X11650Y11584D1*
X11571Y11663D1*
X11525Y11662D1*
X11461Y11671D1*
X11399Y11690D1*
X11341Y11719D1*
X11288Y11757D1*
X11242Y11802D1*
X11204Y11855D1*
X11175Y11913D1*
X11156Y11975D1*
X11147Y12039D1*
X11148Y12104D1*
X11160Y12168D1*
X11183Y12229D1*
X11214Y12286D1*
X11255Y12336D1*
X11303Y12380D1*
X11358Y12415D1*
X11417Y12441D1*
X11480Y12457D1*
X11545Y12462D1*
X11609Y12457D1*
X11673Y12442D1*
X11732Y12416D1*
X11787Y12382D1*
X11836Y12338D1*
X11876Y12288D1*
X11909Y12232D1*
X11931Y12171D1*
X11944Y12107D1*
X11945Y12040D1*
X12392Y11591D1*
X12432Y11540D1*
X12458Y11481D1*
X12470Y11404D1*
Y10433D1*
X12462Y10369D1*
X12439Y10308D1*
X12392Y10246D1*
X10436Y8289D1*
Y6920D1*
X10726Y6632D1*
X11014Y6344D1*
X11066Y6271D1*
X11118Y6254D1*
X11181Y6272D1*
X11245Y6282D1*
X11310Y6284D1*
X11375Y6278D1*
X11438Y6265D1*
X11500Y6244D1*
X11558Y6216D1*
X11613Y6181D1*
X11662Y6139D1*
X11707Y6092D1*
X11745Y6040D1*
X11777Y5983D1*
X11797Y5936D1*
X11828Y6007D1*
X11862Y6062D1*
X11904Y6112D1*
X11950Y6157D1*
X12002Y6196D1*
X12059Y6229D1*
X12118Y6254D1*
X12181Y6272D1*
X12245Y6282D1*
X12310Y6284D1*
X12375Y6278D1*
X12438Y6265D1*
X12500Y6244D1*
X12558Y6216D1*
X12613Y6181D1*
X12662Y6139D1*
X12707Y6092D1*
X12745Y6040D1*
X12777Y5983D1*
X12797Y5936D1*
X12828Y6007D1*
X12862Y6062D1*
X12904Y6112D1*
X12950Y6157D1*
X13002Y6196D1*
X13059Y6229D1*
X13118Y6254D1*
X13181Y6272D1*
X13245Y6282D1*
X13310Y6284D1*
X13375Y6278D1*
X13438Y6265D1*
X13500Y6244D1*
X13558Y6216D1*
X13613Y6181D1*
X13662Y6139D1*
X13707Y6092D1*
X13745Y6040D1*
X13777Y5983D1*
X13802Y5923D1*
X13819Y5860D1*
X13831Y5750D1*
X13827Y5685D1*
X13815Y5621D1*
X13796Y5559D1*
X13769Y5500D1*
X13735Y5444D1*
X13695Y5393D1*
X13649Y5348D1*
X13598Y5308D1*
X13542Y5275D1*
X13484Y5249D1*
X13558Y5216D1*
X13613Y5181D1*
X13662Y5139D1*
X13707Y5092D1*
X13745Y5040D1*
X13777Y4983D1*
X13802Y4923D1*
X13819Y4860D1*
X13831Y4750D1*
X13827Y4685D1*
X13815Y4621D1*
X13796Y4559D1*
X13769Y4500D1*
X13735Y4444D1*
X13695Y4393D1*
X13649Y4348D1*
X13598Y4308D1*
X13514Y4262D1*
X21822D1*
X21775Y4323D1*
X21707Y4434D1*
X21654Y4552D1*
X21616Y4676D1*
X21594Y4804D1*
X21587Y4934D1*
X21597Y5063D1*
X21622Y5191D1*
X21663Y5314D1*
X21719Y5431D1*
X21789Y5541D1*
X21872Y5640D1*
X21967Y5729D1*
X22071Y5806D1*
X22185Y5869D1*
X22305Y5918D1*
X22431Y5951D1*
X22559Y5969D1*
X22689Y5971D1*
X22818Y5956D1*
X22945Y5926D1*
X23066Y5880D1*
X23181Y5820D1*
X23299Y5737D1*
X23297Y6237D1*
Y11976D1*
X23215Y11917D1*
X23102Y11853D1*
X22982Y11803D1*
X22857Y11768D1*
X22729Y11749D1*
X22599Y11745D1*
X22470Y11758D1*
X22343Y11787D1*
X22221Y11831D1*
X22105Y11890D1*
X21998Y11962D1*
X21900Y12048D1*
X21813Y12144D1*
X21739Y12251D1*
X21679Y12366D1*
X21633Y12488D1*
X21603Y12614D1*
X21589Y12743D1*
X21590Y12873D1*
X21608Y13001D1*
X21641Y13127D1*
X21690Y13247D1*
X21753Y13361D1*
X21820Y13455D1*
X5737D1*
X5792Y13383D1*
X5858Y13272D1*
X5909Y13152D1*
X5946Y13028D1*
X5967Y12900D1*
X5972Y12795D1*
X5964Y12666D1*
X5940Y12538D1*
X5900Y12414D1*
X5846Y12297D1*
X5777Y12186D1*
X5696Y12085D1*
X5602Y11995D1*
X5498Y11917D1*
X5386Y11853D1*
X5266Y11803D1*
X5141Y11768D1*
X5012Y11749D1*
X4882Y11745D1*
X4753Y11758D1*
X4627Y11787D1*
X4504Y11831D1*
X4389Y11890D1*
X4281Y11962D1*
X4261Y11979D1*
X4262Y10764D1*
Y5740D1*
X4355Y5806D1*
X4468Y5869D1*
X4589Y5918D1*
X4714Y5951D1*
X4843Y5969D1*
X4973Y5971D1*
X5102Y5956D1*
X5228Y5926D1*
X5350Y5880D1*
X5465Y5820D1*
X5571Y5746D1*
X5668Y5660D1*
X5754Y5562D1*
X5826Y5455D1*
X5885Y5339D1*
X5929Y5217D1*
X5958Y5090D1*
X5971Y4961D1*
X5970Y4856D1*
X5954Y4727D1*
X5922Y4602D1*
X5875Y4481D1*
X5813Y4366D1*
X5739Y4262D1*
X8761D1*
X8762Y5284D1*
X8826D1*
X6188Y9539D2*
X5299D1*
X5235Y9547D1*
X5174Y9570D1*
X5112Y9616D1*
X5050Y9678D1*
X4968Y9628D1*
X4907Y9606D1*
X4843Y9593D1*
X4778Y9592D1*
X4714Y9600D1*
X4652Y9619D1*
X4594Y9648D1*
X4541Y9686D1*
X4495Y9732D1*
X4457Y9784D1*
X4428Y9842D1*
X4409Y9904D1*
X4400Y9969D1*
X4401Y10033D1*
X4413Y10097D1*
X4436Y10158D1*
X4467Y10215D1*
X4508Y10265D1*
X4556Y10309D1*
X4611Y10344D1*
X4670Y10370D1*
X4733Y10386D1*
X4798Y10391D1*
X4862Y10386D1*
X4925Y10371D1*
X4985Y10345D1*
X5040Y10311D1*
X5097Y10256D1*
X5176Y10248D1*
X5236Y10225D1*
X5299Y10179D1*
X5410Y10068D1*
X6186Y10069D1*
X6244Y10121D1*
X6298Y10157D1*
X6358Y10182D1*
X6421Y10198D1*
X6485Y10204D1*
X6550Y10199D1*
X6613Y10183D1*
X6673Y10158D1*
X6728Y10123D1*
X6776Y10080D1*
X6817Y10030D1*
X6849Y9973D1*
X6872Y9912D1*
X6884Y9849D1*
X6887Y9804D1*
X6882Y9739D1*
X6866Y9676D1*
X6840Y9616D1*
X6805Y9562D1*
X6762Y9513D1*
X6711Y9473D1*
X6655Y9441D1*
X6594Y9418D1*
X6530Y9406D1*
X6466Y9404D1*
X6401Y9413D1*
X6339Y9432D1*
X6281Y9460D1*
X6228Y9498D1*
X6187Y9540D1*
X21477Y8555D2*
X22861D1*
X9296Y6284D2*
Y5750D1*
X8762D2*
X9296D1*
D28*
X22169Y7555D3*
D29*
Y8555D3*
Y9555D3*
Y10555D3*
D30*
X9296Y4750D3*
D31*
Y5750D3*
X10296Y4750D3*
Y5750D3*
X11296Y4750D3*
Y5750D3*
X12296Y4750D3*
Y5750D3*
X13296Y4750D3*
Y5750D3*
M02*
