G04 DipTrace 2.4.0.2*
%INTopMask.gbr*%
%MOIN*%
%ADD47C,0.0984*%
%ADD52R,0.0669X0.0276*%
%ADD54R,0.0315X0.0512*%
%ADD56R,0.0866X0.0315*%
%ADD58R,0.1043X0.1043*%
%ADD60O,0.0197X0.0413*%
%ADD62O,0.0413X0.0197*%
%ADD64R,0.0315X0.0315*%
%ADD66R,0.0492X0.0335*%
%ADD68R,0.0472X0.1339*%
%ADD70C,0.0748*%
%ADD72R,0.0748X0.0748*%
%ADD74O,0.1063X0.0827*%
%ADD76R,0.1063X0.0827*%
%ADD78R,0.0394X0.0709*%
%ADD80R,0.0906X0.063*%
%ADD82R,0.0512X0.0472*%
%ADD84R,0.0472X0.0512*%
%ADD86R,0.0787X0.0709*%
%ADD88R,0.0709X0.0787*%
%FSLAX44Y44*%
G04*
G70*
G90*
G75*
G01*
%LNTopMask*%
%LPD*%
D88*
X16171Y8937D3*
X17274D3*
X16171Y8000D3*
X17274D3*
D86*
X19546Y7312D3*
Y8414D3*
D84*
X18046Y5477D3*
Y6147D3*
D82*
X15394Y11516D3*
X14724D3*
X15394Y12697D3*
X14724D3*
Y10925D3*
X15394D3*
G36*
X8996Y10512D2*
X8524D1*
Y11024D1*
X8996D1*
Y10512D1*
G37*
G36*
Y9843D2*
X8524D1*
Y10354D1*
X8996D1*
Y9843D1*
G37*
D82*
X18878Y10630D3*
X18209D3*
D84*
X4799Y11076D3*
Y10406D3*
G36*
X14282Y9681D2*
X13810D1*
Y10193D1*
X14282D1*
Y9681D1*
G37*
G36*
Y9012D2*
X13810D1*
Y9524D1*
X14282D1*
Y9012D1*
G37*
G36*
X8595Y9203D2*
X8123D1*
Y9715D1*
X8595D1*
Y9203D1*
G37*
G36*
Y8534D2*
X8123D1*
Y9046D1*
X8595D1*
Y8534D1*
G37*
D82*
X6527Y10366D3*
X7196D3*
X6009D3*
X5340D3*
X4626Y7480D3*
X5295D3*
D80*
X18359Y7062D3*
Y8597D3*
D86*
X20421Y7312D3*
Y8414D3*
D78*
X17466Y5455D3*
X16127D3*
D84*
X21296Y5397D3*
Y4727D3*
X9941Y7283D3*
Y7953D3*
D88*
X21063Y6299D3*
X22165D3*
D47*
X4921Y12795D3*
Y4921D3*
X22638D3*
Y12795D3*
D76*
X22169Y7555D3*
D74*
Y8555D3*
Y9555D3*
Y10555D3*
D72*
X9296Y4750D3*
D70*
Y5750D3*
X10296Y4750D3*
Y5750D3*
X11296Y4750D3*
Y5750D3*
X12296Y4750D3*
Y5750D3*
X13296Y4750D3*
Y5750D3*
D68*
X16171Y6812D3*
X17037D3*
D82*
X18796Y4687D3*
X18127D3*
X20171D3*
X19502D3*
D84*
X20046Y5727D3*
Y6397D3*
X20796Y4727D3*
Y5397D3*
G36*
X8470Y4994D2*
X7998D1*
Y5505D1*
X8470D1*
Y4994D1*
G37*
G36*
Y4324D2*
X7998D1*
Y4836D1*
X8470D1*
Y4324D1*
G37*
D84*
X8366Y5965D3*
Y6634D3*
D82*
X14724Y12106D3*
X15394D3*
X14724Y13287D3*
X15394D3*
X14724Y10335D3*
X15394D3*
D84*
X7480Y5866D3*
Y6535D3*
X6791Y5866D3*
Y6535D3*
D66*
X20827Y11634D3*
Y12382D3*
X19921Y12008D3*
D64*
X21358Y12441D3*
Y11575D3*
D62*
X6299Y8366D3*
Y8563D3*
Y8760D3*
Y8957D3*
Y9154D3*
Y9350D3*
D60*
X6043Y9606D3*
X5846D3*
X5650D3*
X5453D3*
X5256D3*
X5059D3*
D62*
X4803Y9350D3*
Y9154D3*
Y8957D3*
Y8760D3*
Y8563D3*
Y8366D3*
D60*
X5059Y8110D3*
X5256D3*
X5453D3*
X5650D3*
X5846D3*
X6043D3*
D58*
X5551Y8858D3*
D56*
X16752Y12758D3*
Y12258D3*
Y11758D3*
Y11258D3*
X18878D3*
Y11758D3*
Y12258D3*
Y12758D3*
G36*
X9488Y10709D2*
Y10984D1*
X10236D1*
Y10709D1*
X9488D1*
G37*
G36*
Y10394D2*
Y10669D1*
X10236D1*
Y10394D1*
X9488D1*
G37*
G36*
Y10079D2*
Y10354D1*
X10236D1*
Y10079D1*
X9488D1*
G37*
G36*
Y9764D2*
Y10039D1*
X10236D1*
Y9764D1*
X9488D1*
G37*
G36*
Y9449D2*
Y9724D1*
X10236D1*
Y9449D1*
X9488D1*
G37*
G36*
Y9134D2*
Y9409D1*
X10236D1*
Y9134D1*
X9488D1*
G37*
G36*
Y8819D2*
Y9094D1*
X10236D1*
Y8819D1*
X9488D1*
G37*
G36*
Y8504D2*
Y8780D1*
X10236D1*
Y8504D1*
X9488D1*
G37*
G36*
X10551Y7717D2*
X10276D1*
Y8465D1*
X10551D1*
Y7717D1*
G37*
G36*
X10866D2*
X10591D1*
Y8465D1*
X10866D1*
Y7717D1*
G37*
G36*
X11181D2*
X10906D1*
Y8465D1*
X11181D1*
Y7717D1*
G37*
G36*
X11496D2*
X11220D1*
Y8465D1*
X11496D1*
Y7717D1*
G37*
G36*
X11811D2*
X11535D1*
Y8465D1*
X11811D1*
Y7717D1*
G37*
G36*
X12126D2*
X11850D1*
Y8465D1*
X12126D1*
Y7717D1*
G37*
G36*
X12441D2*
X12165D1*
Y8465D1*
X12441D1*
Y7717D1*
G37*
G36*
X12756D2*
X12480D1*
Y8465D1*
X12756D1*
Y7717D1*
G37*
G36*
X12795Y8504D2*
Y8780D1*
X13543D1*
Y8504D1*
X12795D1*
G37*
G36*
Y8819D2*
Y9094D1*
X13543D1*
Y8819D1*
X12795D1*
G37*
G36*
Y9134D2*
Y9409D1*
X13543D1*
Y9134D1*
X12795D1*
G37*
G36*
Y9449D2*
Y9724D1*
X13543D1*
Y9449D1*
X12795D1*
G37*
G36*
Y9764D2*
Y10039D1*
X13543D1*
Y9764D1*
X12795D1*
G37*
G36*
Y10079D2*
Y10354D1*
X13543D1*
Y10079D1*
X12795D1*
G37*
G36*
Y10394D2*
Y10669D1*
X13543D1*
Y10394D1*
X12795D1*
G37*
G36*
Y10709D2*
Y10984D1*
X13543D1*
Y10709D1*
X12795D1*
G37*
G36*
X12756Y11024D2*
X12480D1*
Y11772D1*
X12756D1*
Y11024D1*
G37*
G36*
X12441D2*
X12165D1*
Y11772D1*
X12441D1*
Y11024D1*
G37*
G36*
X12126D2*
X11850D1*
Y11772D1*
X12126D1*
Y11024D1*
G37*
G36*
X11811D2*
X11535D1*
Y11772D1*
X11811D1*
Y11024D1*
G37*
G36*
X11496D2*
X11220D1*
Y11772D1*
X11496D1*
Y11024D1*
G37*
G36*
X11181D2*
X10906D1*
Y11772D1*
X11181D1*
Y11024D1*
G37*
G36*
X10866D2*
X10591D1*
Y11772D1*
X10866D1*
Y11024D1*
G37*
G36*
X10551D2*
X10276D1*
Y11772D1*
X10551D1*
Y11024D1*
G37*
D54*
X18672Y5406D3*
X19046D3*
X19420D3*
Y6469D3*
X19046D3*
X18672D3*
D52*
X9046Y8632D3*
Y8159D3*
Y7687D3*
G36*
X15609Y7437D2*
X16359D1*
Y6187D1*
X15609D1*
Y7437D1*
G37*
G36*
X16859D2*
X17609D1*
Y6187D1*
X16859D1*
Y7437D1*
G37*
M02*
